<svg width="370" height="296" viewBox="0 0 370 296" fill="none" xmlns="http://www.w3.org/2000/svg">
<g clip-path="url(#clip0_387:1378)">
<path d="M330.819 144.725C330.819 147.384 330.747 150.024 330.602 152.645C330.077 162.446 328.548 172.167 326.038 181.658C326.033 181.662 326.033 181.662 326.038 181.666C325.708 182.922 325.358 184.173 324.989 185.412C324.973 185.472 324.957 185.528 324.936 185.584C324.39 187.443 323.806 189.285 323.184 191.109V191.113C313.418 219.777 294.871 244.677 270.149 262.315C245.427 279.953 215.773 289.442 185.351 289.451C116.543 289.451 58.8982 241.927 43.7647 178.068C41.1776 167.141 39.8749 155.952 39.8828 144.725C39.8828 142.495 39.9337 140.276 40.0355 138.069C41.2413 111.09 50.0489 84.992 65.4523 62.7556C65.6372 62.4838 65.826 62.2119 66.0189 61.9441C92.3077 24.4954 135.956 0 185.351 0C255.16 0 313.48 48.9188 327.569 114.181C327.571 114.183 327.572 114.186 327.573 114.189C328.481 118.395 329.201 122.665 329.734 126.999C330.46 132.88 330.822 138.8 330.819 144.725Z" fill="white"/>
<path d="M368.7 266.111C367.614 270.019 365.917 273.733 363.673 277.118C358.658 284.662 351.481 290.431 343.593 295.048C343.046 295.372 342.492 295.688 341.937 296H336.404L336.211 295.56V295.556L335.986 295.048L335.958 294.988L335.945 295.048L335.724 296H333.008C332.783 295.684 332.562 295.368 332.345 295.048C332.028 294.581 331.722 294.109 331.433 293.629C330.922 292.79 330.466 291.919 330.067 291.022C330.018 290.922 329.978 290.823 329.938 290.723L330.119 290.527L329.367 287.256L330.878 287.008L329.223 281.927C329.283 281.739 329.351 281.551 329.424 281.363C330.352 279.025 332.096 277.278 334.165 275.81C336.295 274.295 338.775 273.08 341.053 271.816C342.122 271.221 343.175 270.593 344.199 269.929V269.925C345.51 269.082 346.781 268.179 348.013 267.219C348.034 267.205 348.054 267.191 348.073 267.175C348.09 267.163 348.106 267.149 348.121 267.135C353.646 262.841 358.321 257.563 361.909 251.571C361.909 251.571 361.91 251.571 361.91 251.57C361.911 251.57 361.911 251.57 361.912 251.57C361.912 251.569 361.912 251.569 361.913 251.568C361.913 251.568 361.913 251.567 361.913 251.567C362.033 251.375 362.146 251.183 362.258 250.987V250.983C363.728 248.469 364.992 245.842 366.04 243.127V243.123C366.12 242.923 366.193 242.723 366.269 242.523C366.373 242.699 366.474 242.875 366.57 243.051C366.571 243.051 366.571 243.051 366.572 243.051C366.572 243.052 366.573 243.052 366.573 243.052C366.573 243.053 366.574 243.053 366.574 243.054C366.574 243.054 366.574 243.055 366.574 243.055C370.472 249.992 370.842 258.347 368.7 266.111Z" fill="#6C63FF"/>
<path d="M366.574 243.055C366.613 246.757 366.227 250.451 365.421 254.066C365.059 255.72 364.609 257.353 364.071 258.959C363.027 262.101 361.663 265.129 360 267.994C359.908 268.15 359.819 268.302 359.723 268.454V268.458C359.012 269.65 358.241 270.806 357.412 271.92C356.158 273.696 354.609 275.245 352.831 276.502C351.379 277.457 349.737 278.088 348.017 278.353C347.696 278.413 347.366 278.457 347.033 278.497C345.703 278.653 344.328 278.713 343.01 278.993C342.343 279.124 341.693 279.332 341.073 279.612C338.952 280.592 337.758 282.643 337.236 284.834C337.143 285.218 337.071 285.605 337.015 285.993C336.577 288.972 337.059 292.066 336.81 295.048C336.782 295.364 336.745 295.684 336.701 296H336.404L336.211 295.56V295.556C336.231 295.388 336.247 295.22 336.263 295.048C336.36 293.583 336.372 292.113 336.299 290.647C336.283 289.987 336.271 289.323 336.279 288.66C336.287 288.128 336.307 287.596 336.348 287.069V287.065C336.376 286.737 336.408 286.413 336.452 286.089C336.58 285.097 336.825 284.125 337.183 283.191C337.533 282.228 338.083 281.35 338.798 280.614C339.513 279.879 340.376 279.301 341.33 278.921C341.914 278.703 342.515 278.536 343.127 278.421C344.473 278.165 345.863 278.101 347.218 277.933C347.362 277.917 347.507 277.897 347.648 277.873C347.828 277.845 348.005 277.813 348.182 277.781C349.954 277.468 351.627 276.747 353.068 275.674C354.781 274.326 356.27 272.717 357.481 270.909C358.14 269.969 358.767 269.01 359.349 268.022C359.349 268.022 359.349 268.021 359.35 268.021C359.35 268.02 359.35 268.02 359.35 268.02C359.351 268.019 359.351 268.019 359.352 268.019C359.352 268.018 359.353 268.018 359.353 268.018C359.381 267.97 359.41 267.926 359.438 267.878L359.442 267.87C361.941 263.621 363.765 259.013 364.851 254.209C364.887 254.034 364.927 253.858 364.967 253.682C365.713 250.213 366.073 246.674 366.04 243.127V243.123C366.04 242.955 366.036 242.791 366.032 242.623C366.024 242.28 366.558 242.204 366.566 242.547C366.57 242.715 366.574 242.883 366.57 243.051C366.571 243.051 366.571 243.051 366.572 243.051C366.572 243.052 366.573 243.052 366.573 243.052C366.574 243.053 366.574 243.053 366.574 243.054C366.574 243.054 366.574 243.055 366.574 243.055Z" fill="white"/>
<path d="M359.493 268.346C361.024 269.12 362.782 269.327 364.453 268.93C366.123 268.534 367.598 267.559 368.613 266.181C368.817 265.901 368.39 265.572 368.186 265.852C367.243 267.137 365.869 268.045 364.313 268.411C362.756 268.777 361.12 268.578 359.698 267.849C359.389 267.691 359.186 268.189 359.493 268.346Z" fill="white"/>
<path d="M348.233 277.941C347.114 274.63 347.291 271.021 348.727 267.834C348.87 267.519 348.37 267.315 348.228 267.63C346.739 270.95 346.563 274.705 347.735 278.148C347.847 278.476 348.345 278.267 348.233 277.941V277.941Z" fill="white"/>
<path d="M365.122 253.731C364.467 253.554 363.866 253.219 363.374 252.754C362.881 252.289 362.512 251.71 362.3 251.069C362.193 250.739 361.695 250.949 361.802 251.276C362.04 251.984 362.448 252.623 362.991 253.137C363.534 253.652 364.195 254.027 364.917 254.228C364.984 254.253 365.057 254.251 365.123 254.224C365.188 254.197 365.241 254.146 365.27 254.082C365.296 254.016 365.296 253.942 365.268 253.876C365.241 253.81 365.188 253.758 365.122 253.731Z" fill="white"/>
<path d="M344.199 269.925V269.929C344.075 272.784 343.716 275.624 343.126 278.421V278.425C343.094 278.617 343.05 278.805 343.01 278.993C342.04 283.318 340.68 287.548 338.947 291.63C338.469 292.782 337.968 293.921 337.444 295.048C337.3 295.368 337.151 295.684 336.998 296H336.403L336.21 295.56V295.556L335.985 295.048L335.957 294.988L335.945 295.048L335.724 296H329.978L328.861 295.048L327.233 293.661L329.508 291.19L329.881 290.783L329.938 290.723L330.118 290.527L329.367 287.256L330.878 287.009L329.222 281.927L328.439 279.524L328.242 278.921L327.097 275.406L323.641 276.05L323.078 274.091C324.114 271.702 324.976 269.243 325.658 266.731C325.662 266.711 325.67 266.695 325.674 266.675C327.5 259.91 328.048 252.866 327.289 245.902V245.898C327.265 245.674 327.237 245.446 327.205 245.226V245.218C326.861 242.332 326.28 239.479 325.469 236.686C325.413 236.475 325.349 236.267 325.288 236.059C325.473 236.139 325.654 236.215 325.839 236.295L325.843 236.299H325.851C326.144 236.427 326.438 236.563 326.723 236.707C333.578 240.021 338.621 246.242 341.487 253.414C341.495 253.434 341.503 253.45 341.511 253.47C343.006 257.23 343.897 261.2 344.151 265.236C344.247 266.797 344.263 268.362 344.199 269.925Z" fill="#6C63FF"/>
<path d="M333.771 296H333.137C332.936 295.676 332.719 295.36 332.502 295.049C332.156 294.565 331.8 294.092 331.433 293.629C331.115 293.229 330.798 292.834 330.48 292.438C330.151 292.026 329.825 291.614 329.508 291.19L329.882 290.783C329.942 290.863 330.002 290.943 330.066 291.023C331.095 292.37 332.208 293.665 333.161 295.049C333.374 295.36 333.579 295.676 333.771 296Z" fill="white"/>
<path d="M325.155 236.282C325.26 236.414 325.368 236.55 325.469 236.686C326.252 237.698 326.993 238.741 327.691 239.816C328.934 241.714 330.038 243.698 330.994 245.753C331.07 245.913 331.147 246.077 331.219 246.241C333.266 250.732 334.6 255.512 335.173 260.41C335.181 260.458 335.185 260.502 335.189 260.55C335.322 261.693 335.408 262.841 335.447 263.992C335.575 266.16 335.359 268.335 334.808 270.437C334.727 270.713 334.639 270.984 334.542 271.248C334.301 271.895 333.998 272.517 333.638 273.107C333.38 273.538 333.093 273.951 332.778 274.343C332.589 274.583 332.393 274.818 332.184 275.046C332.063 275.178 331.938 275.31 331.814 275.442C331.709 275.542 331.609 275.646 331.504 275.746C330.419 276.793 329.222 277.765 328.242 278.92L328.438 279.524C329.383 278.333 330.6 277.345 331.697 276.306C332.386 275.661 333.013 274.955 333.57 274.195C333.642 274.091 333.719 273.987 333.787 273.879C334.159 273.338 334.481 272.764 334.747 272.164C334.884 271.864 335.009 271.556 335.121 271.236C335.778 269.169 336.077 267.006 336.005 264.84C335.992 263.452 335.909 262.065 335.756 260.686C335.74 260.506 335.72 260.33 335.696 260.15C335.288 256.866 334.545 253.633 333.478 250.499C332.126 246.524 330.268 242.737 327.948 239.233C327.285 238.229 326.582 237.25 325.838 236.294C325.742 236.162 325.642 236.034 325.537 235.902C325.324 235.631 324.942 236.01 325.155 236.282Z" fill="white"/>
<path d="M335.505 260.736C337.196 260.437 338.725 259.549 339.818 258.232C340.912 256.915 341.5 255.253 341.476 253.545C341.474 253.475 341.446 253.409 341.396 253.36C341.346 253.311 341.279 253.283 341.209 253.282C341.139 253.281 341.071 253.308 341.02 253.355C340.969 253.403 340.939 253.469 340.936 253.538C340.961 255.129 340.413 256.677 339.392 257.901C338.371 259.126 336.944 259.947 335.368 260.217C335.025 260.276 335.164 260.795 335.505 260.736Z" fill="white"/>
<path d="M332.32 275.142C329.423 273.169 327.38 270.182 326.598 266.776C326.521 266.439 325.999 266.576 326.076 266.913C326.896 270.455 329.028 273.559 332.048 275.606C332.336 275.801 332.606 275.336 332.32 275.142H332.32Z" fill="white"/>
<path d="M331.154 245.696C330.524 245.947 329.841 246.039 329.167 245.963C328.492 245.887 327.847 245.645 327.29 245.26C327.005 245.062 326.734 245.527 327.018 245.724C327.635 246.147 328.348 246.413 329.093 246.498C329.838 246.584 330.593 246.487 331.291 246.215C331.359 246.195 331.417 246.15 331.453 246.089C331.489 246.028 331.5 245.956 331.484 245.887C331.466 245.818 331.42 245.76 331.359 245.724C331.297 245.688 331.223 245.678 331.154 245.696Z" fill="white"/>
<path d="M254.496 62.7572H0.399148C0.292489 62.7548 0.190984 62.711 0.116379 62.6352C0.0417745 62.5593 0 62.4574 0 62.3512C0 62.2451 0.0417745 62.1432 0.116379 62.0673C0.190984 61.9914 0.292489 61.9476 0.399148 61.9453H254.496C254.603 61.9476 254.704 61.9914 254.779 62.0673C254.853 62.1432 254.895 62.2451 254.895 62.3512C254.895 62.4574 254.853 62.5593 254.779 62.6352C254.704 62.711 254.603 62.7548 254.496 62.7572Z" fill="#CACACA"/>
<path d="M9.3825 57.0745C11.8072 57.0745 13.7728 55.0753 13.7728 52.6093C13.7728 50.1432 11.8072 48.144 9.3825 48.144C6.9578 48.144 4.99219 50.1432 4.99219 52.6093C4.99219 55.0753 6.9578 57.0745 9.3825 57.0745Z" fill="#6C63FF"/>
<path d="M24.5495 57.0745C26.9742 57.0745 28.9398 55.0753 28.9398 52.6093C28.9398 50.1432 26.9742 48.144 24.5495 48.144C22.1248 48.144 20.1592 50.1432 20.1592 52.6093C20.1592 55.0753 22.1248 57.0745 24.5495 57.0745Z" fill="#6C63FF"/>
<path d="M39.7155 57.0745C42.1402 57.0745 44.1058 55.0753 44.1058 52.6093C44.1058 50.1432 42.1402 48.144 39.7155 48.144C37.2908 48.144 35.3252 50.1432 35.3252 52.6093C35.3252 55.0753 37.2908 57.0745 39.7155 57.0745Z" fill="#6C63FF"/>
<path d="M245.407 49.2505H234.634C234.42 49.2547 234.217 49.3421 234.067 49.4938C233.918 49.6455 233.834 49.8496 233.834 50.0621C233.834 50.2746 233.918 50.4786 234.067 50.6303C234.217 50.7821 234.42 50.8694 234.634 50.8736H245.407C245.621 50.8694 245.824 50.7821 245.974 50.6303C246.123 50.4786 246.207 50.2746 246.207 50.0621C246.207 49.8496 246.123 49.6455 245.974 49.4938C245.824 49.3421 245.621 49.2547 245.407 49.2505Z" fill="#3F3D56"/>
<path d="M245.407 52.2971H234.634C234.42 52.3013 234.217 52.3887 234.067 52.5404C233.918 52.6922 233.834 52.8962 233.834 53.1087C233.834 53.3212 233.918 53.5252 234.067 53.677C234.217 53.8287 234.42 53.9161 234.634 53.9203H245.407C245.621 53.9161 245.824 53.8287 245.974 53.677C246.123 53.5252 246.207 53.3212 246.207 53.1087C246.207 52.8962 246.123 52.6922 245.974 52.5404C245.824 52.3887 245.621 52.3013 245.407 52.2971Z" fill="#3F3D56"/>
<path d="M245.407 55.3394H234.634C234.42 55.3436 234.217 55.4309 234.067 55.5827C233.918 55.7344 233.834 55.9384 233.834 56.1509C233.834 56.3634 233.918 56.5675 234.067 56.7192C234.217 56.871 234.42 56.9583 234.634 56.9625H245.407C245.621 56.9583 245.824 56.871 245.974 56.7192C246.123 56.5675 246.207 56.3634 246.207 56.1509C246.207 55.9384 246.123 55.7344 245.974 55.5827C245.824 55.4309 245.621 55.3436 245.407 55.3394Z" fill="#3F3D56"/>
<path d="M66.9713 79.2991H55.5629C49.1287 91.9016 44.5993 105.38 42.1211 119.298H66.9713C67.7633 119.3 68.5477 119.146 69.2796 118.845C70.0116 118.544 70.6766 118.102 71.2366 117.545C71.7966 116.988 72.2405 116.326 72.543 115.598C72.8454 114.87 73.0004 114.089 72.999 113.302V85.292C72.9969 83.7025 72.361 82.1788 71.2309 81.0552C70.1009 79.9317 68.5689 79.3001 66.9713 79.2991Z" fill="#CCCCCC"/>
<path d="M151.484 79.2991H99.7943C98.1967 79.3001 96.6647 79.9317 95.5346 81.0553C94.4046 82.1788 93.7687 83.7025 93.7666 85.292V113.302C93.7685 114.891 94.4042 116.416 95.5342 117.54C96.6642 118.664 98.1962 119.297 99.7943 119.298H151.484C153.082 119.297 154.614 118.664 155.744 117.54C156.874 116.416 157.51 114.891 157.511 113.302V85.292C157.509 83.7025 156.873 82.1788 155.743 81.0553C154.613 79.9317 153.081 79.3001 151.484 79.2991Z" fill="#CCCCCC"/>
<path d="M235.996 79.2991H184.307C182.709 79.3001 181.177 79.9317 180.047 81.0553C178.917 82.1788 178.281 83.7025 178.279 85.292V113.302C178.281 114.891 178.917 116.416 180.047 117.54C181.177 118.664 182.709 119.297 184.307 119.298H235.996C237.594 119.297 239.127 118.664 240.257 117.54C241.386 116.416 242.022 114.891 242.024 113.302V85.292C242.022 83.7025 241.386 82.1788 240.256 81.0553C239.126 79.9317 237.594 79.3001 235.996 79.2991Z" fill="#CCCCCC"/>
<path d="M66.9713 138.069H40.0355C39.9351 140.276 39.8842 142.495 39.8828 144.725C39.8749 155.952 41.1776 167.141 43.7647 178.068H66.9713C68.5693 178.066 70.1014 177.434 71.2314 176.31C72.3614 175.185 72.9971 173.661 72.999 172.071V144.062C72.9969 142.472 72.361 140.949 71.231 139.825C70.1009 138.701 68.5689 138.07 66.9713 138.069Z" fill="#CCCCCC"/>
<path d="M151.484 138.069H99.7943C98.1967 138.07 96.6647 138.701 95.5346 139.825C94.4046 140.949 93.7687 142.472 93.7666 144.062V172.071C93.7685 173.661 94.4042 175.185 95.5342 176.31C96.6642 177.434 98.1962 178.066 99.7943 178.068H151.484C153.082 178.066 154.614 177.434 155.744 176.31C156.874 175.185 157.51 173.661 157.511 172.071V144.062C157.509 142.472 156.873 140.949 155.743 139.825C154.613 138.701 153.081 138.07 151.484 138.069Z" fill="#CCCCCC"/>
<path d="M235.997 138.069H184.307C182.709 138.07 181.177 138.701 180.047 139.825C178.917 140.949 178.281 142.472 178.279 144.062V172.071C178.281 173.661 178.917 175.185 180.047 176.31C181.177 177.434 182.709 178.066 184.307 178.068H235.997C236.161 178.068 236.326 178.06 236.491 178.044C237.137 177.997 237.77 177.842 238.363 177.584C239.44 177.126 240.359 176.366 241.009 175.397C241.659 174.428 242.012 173.292 242.024 172.127V144.062C242.022 142.472 241.386 140.949 240.256 139.825C239.126 138.701 237.594 138.07 235.997 138.069Z" fill="#CCCCCC"/>
<path d="M68.0504 125.988C74.655 125.988 80.009 120.661 80.009 114.09C80.009 107.52 74.655 102.193 68.0504 102.193C61.4459 102.193 56.0918 107.52 56.0918 114.09C56.0918 120.661 61.4459 125.988 68.0504 125.988Z" fill="#6C63FF"/>
<path d="M66.4188 120.282C66.2123 120.282 66.0086 120.235 65.8239 120.143C65.6392 120.051 65.4786 119.917 65.3547 119.753L62.0922 115.425C61.9874 115.286 61.9111 115.128 61.8678 114.96C61.8244 114.791 61.8148 114.616 61.8395 114.444C61.8643 114.272 61.9228 114.106 62.0118 113.957C62.1008 113.807 62.2185 113.677 62.3583 113.572C62.498 113.468 62.6571 113.392 62.8263 113.349C62.9955 113.306 63.1716 113.296 63.3445 113.321C63.5175 113.346 63.6838 113.404 63.8341 113.492C63.9844 113.581 64.1158 113.698 64.2206 113.837L66.355 116.668L71.837 108.487C71.9338 108.342 72.0584 108.218 72.2036 108.121C72.3487 108.024 72.5117 107.957 72.6831 107.923C72.8545 107.888 73.031 107.888 73.2025 107.922C73.374 107.956 73.5371 108.023 73.6826 108.119C73.828 108.215 73.953 108.34 74.0502 108.484C74.1474 108.629 74.2151 108.791 74.2493 108.961C74.2835 109.132 74.2835 109.308 74.2494 109.478C74.2154 109.649 74.1478 109.811 74.0507 109.956L67.5257 119.693C67.4077 119.869 67.2489 120.015 67.0627 120.117C66.8766 120.22 66.6684 120.276 66.4558 120.282C66.4434 120.282 66.4311 120.282 66.4188 120.282Z" fill="white"/>
<path d="M155.251 127.187C161.855 127.187 167.209 121.861 167.209 115.29C167.209 108.719 161.855 103.392 155.251 103.392C148.646 103.392 143.292 108.719 143.292 115.29C143.292 121.861 148.646 127.187 155.251 127.187Z" fill="#6C63FF"/>
<path d="M153.62 121.482C153.413 121.482 153.21 121.434 153.025 121.342C152.84 121.25 152.68 121.117 152.556 120.953L149.293 116.625C149.189 116.486 149.112 116.327 149.069 116.159C149.026 115.991 149.016 115.816 149.041 115.644C149.065 115.471 149.124 115.306 149.213 115.156C149.302 115.007 149.42 114.876 149.559 114.772C149.699 114.668 149.858 114.592 150.027 114.549C150.197 114.506 150.373 114.496 150.546 114.521C150.719 114.545 150.885 114.603 151.035 114.692C151.186 114.781 151.317 114.898 151.422 115.037L153.556 117.868L159.038 109.687C159.234 109.395 159.538 109.193 159.884 109.124C160.23 109.056 160.589 109.127 160.882 109.321C161.175 109.516 161.379 109.818 161.448 110.162C161.518 110.506 161.447 110.863 161.252 111.155L154.727 120.893C154.609 121.069 154.45 121.214 154.264 121.317C154.078 121.419 153.87 121.476 153.657 121.482C153.645 121.482 153.632 121.482 153.62 121.482Z" fill="white"/>
<path d="M326.022 179.402L322.279 143.355L321.291 128.519L331.768 126.634C331.768 126.634 333.337 136.833 334.709 142.818C336.064 148.724 332.905 178.61 332.821 179.398C333.591 180.083 334.133 180.984 334.377 181.982C334.621 182.98 334.554 184.028 334.186 184.987C333.818 185.946 333.166 186.772 332.316 187.355C331.466 187.937 330.458 188.25 329.426 188.25C328.394 188.251 327.386 187.939 326.535 187.358C325.685 186.776 325.032 185.951 324.663 184.992C324.294 184.032 324.226 182.985 324.469 181.986C324.712 180.988 325.253 180.087 326.022 179.402Z" fill="#A0616A"/>
<path d="M299.208 286.702L294.012 287.884L286.958 268.507L294.626 266.763L299.208 286.702Z" fill="#A0616A"/>
<path d="M300.147 284.713L298.821 285.013L298.684 285.045L292.62 284.062L292.444 284.034L289.912 287.04C288.182 287.434 286.681 288.495 285.737 289.99C284.794 291.485 284.486 293.291 284.881 295.012L284.889 295.048L284.933 295.224L285.705 295.048L301.686 291.41L300.147 284.713Z" fill="#2F2E41"/>
<path d="M330.183 290.082H324.853L322.317 269.628L330.184 269.629L330.183 290.082Z" fill="#A0616A"/>
<path d="M330.045 288.351L329.578 288.163L324.354 286.048L324.186 285.98L321.047 288.351C320.169 288.351 319.299 288.523 318.487 288.857C317.676 289.191 316.938 289.681 316.317 290.299C315.696 290.917 315.203 291.65 314.866 292.457C314.53 293.265 314.357 294.13 314.356 295.004V295.22L329.068 295.224H331.543V288.351H330.045Z" fill="#2F2E41"/>
<path d="M322.076 180.614L326.559 222.984C326.559 222.984 332.527 265.409 331.406 271.263C330.286 277.117 331.687 277.953 331.687 277.953L321.46 277.228C321.46 277.228 321.74 273.604 320.059 271.932C318.378 270.259 319.219 265.242 319.219 265.242L299.381 196.224L287.334 232.462C287.334 232.462 294.945 261.848 294.665 262.406C294.384 262.963 299.487 275.199 299.487 275.199L288.071 278.966C288.071 278.966 289.472 274.506 287.511 273.112C285.549 271.718 283.868 272.833 285.549 270.324C287.23 267.815 272.304 249.391 272.632 237.517C272.731 233.945 272.85 230.112 272.994 226.186C273.753 205.407 275.186 181.994 277.807 180.614C282.57 178.105 322.076 180.614 322.076 180.614Z" fill="#2F2E41"/>
<path d="M300.846 94.8242C306.936 94.8242 311.873 89.9128 311.873 83.8544C311.873 77.7959 306.936 72.8845 300.846 72.8845C294.757 72.8845 289.82 77.7959 289.82 83.8544C289.82 89.9128 294.757 94.8242 300.846 94.8242Z" fill="#A0616A"/>
<path d="M337.662 150.864L322.69 154.645L322.794 150.464L321.658 149.264L319.387 137.432L316.977 106.797L325.25 111.162L325.26 111.17C326.705 112.751 327.913 114.531 328.848 116.455C331.967 122.763 334.963 136.658 336.531 144.728C336.585 144.898 336.689 145.047 336.83 145.156C337.608 145.867 338.115 146.823 338.267 147.862C338.419 148.902 338.205 149.962 337.662 150.864V150.864Z" fill="#3F3D56"/>
<path d="M249.185 164.42C249.185 164.42 269.851 142.744 270.044 142.335C271.487 131.429 275.639 126.618 276.262 127.14L286.978 130.833C286.978 130.833 283.79 140.876 281.632 146.841C279.57 152.541 255.802 166.463 255.406 167.15C255.832 168.085 255.962 169.128 255.78 170.138C255.597 171.149 255.111 172.081 254.385 172.811C253.658 173.54 252.726 174.033 251.712 174.225C250.698 174.416 249.65 174.297 248.705 173.882C247.761 173.468 246.965 172.778 246.423 171.904C245.882 171.03 245.62 170.013 245.672 168.987C245.723 167.961 246.087 166.976 246.715 166.16C247.342 165.345 248.203 164.738 249.185 164.42Z" fill="#A0616A"/>
<path d="M292.126 108.77C292.126 108.77 282.848 104.246 279.249 113.131C277.276 118.147 272.231 130.321 269.716 137.815C269.7 137.863 269.676 137.908 269.648 137.95C268.975 138.944 268.612 140.113 268.604 141.312C268.605 141.399 268.596 141.486 268.577 141.571C268.577 141.571 278.773 143.547 281.806 148.865L283.009 147.566L283.222 146.656L292.126 108.77Z" fill="#3F3D56"/>
<path d="M325.887 185.231C304.533 189.619 276.235 182.076 276.235 182.076L283.784 149.521L281.1 115.451C280.773 111.285 283.158 107.38 286.868 105.996L291.992 104.087L296.227 98.0544L308.324 98.4493L313.16 104.782L316.976 106.796L325.249 111.162L325.286 111.18V111.198L322.689 136.254L321.124 151.361C321.124 151.361 325.879 168.353 324.903 170.606C323.928 172.856 324.776 171.769 325.013 172.972C325.249 174.175 325.974 174.251 326.083 176.62C326.196 178.986 325.887 185.231 325.887 185.231Z" fill="#3F3D56"/>
<path d="M312.808 79.9482C311.936 79.093 313.248 76.8289 313 75.6363C312.716 74.269 311.202 74.229 310.84 72.8799C310.452 71.4285 308.897 70.6384 307.46 70.1784C303.776 69.0057 299.845 68.8266 296.069 69.6594C294.398 70.0654 292.752 70.5697 291.141 71.1697C290.029 71.5591 291.102 70.4994 289.989 70.8888C289.568 70.9822 289.197 71.2274 288.946 71.5772C288.746 71.9533 289.016 72.5549 289.437 72.4787C288.079 73.0744 286.721 73.6702 285.363 74.2659C286.125 75.0596 286.886 75.8532 287.648 76.647C286.565 76.3404 285.411 77.6246 285.838 78.6608C286.01 78.9879 286.259 79.2685 286.564 79.4786C286.869 79.6886 287.22 79.8217 287.589 79.8665C288.812 80.1033 287.884 81.2613 289.13 81.2388C290.376 81.2162 299.063 78.6755 299.669 79.7588C300.1 80.5303 300.053 81.5521 300.668 82.1877C301.456 83.0009 302.832 82.7035 303.835 82.1741C304.838 81.6448 305.855 80.9172 306.983 81.0441C308.16 81.1766 309.051 83.3418 309.341 84.4852C309.631 85.6285 309.448 86.8315 309.263 87.9963C309.021 89.5261 306.594 91.0558 306.351 92.5855C309.045 93.3267 311.935 90.9684 313 86.8672C312.894 84.2747 314.664 81.7706 312.808 79.9482Z" fill="#2F2E41"/>
<path d="M238.836 183.958C245.44 183.958 250.794 178.631 250.794 172.061C250.794 165.49 245.44 160.163 238.836 160.163C232.231 160.163 226.877 165.49 226.877 172.061C226.877 178.631 232.231 183.958 238.836 183.958Z" fill="#6C63FF"/>
<path d="M237.204 178.253C236.997 178.253 236.794 178.205 236.609 178.113C236.424 178.021 236.264 177.888 236.14 177.723L232.877 173.395C232.773 173.256 232.696 173.098 232.653 172.93C232.61 172.761 232.6 172.586 232.625 172.414C232.649 172.242 232.708 172.077 232.797 171.927C232.886 171.777 233.004 171.647 233.143 171.543C233.283 171.438 233.442 171.362 233.611 171.319C233.781 171.276 233.957 171.267 234.13 171.291C234.303 171.316 234.469 171.374 234.619 171.463C234.77 171.551 234.901 171.668 235.006 171.807L237.14 174.638L242.622 166.458C242.719 166.313 242.844 166.188 242.989 166.091C243.134 165.994 243.297 165.927 243.468 165.893C243.64 165.859 243.816 165.858 243.988 165.892C244.159 165.926 244.322 165.993 244.468 166.089C244.613 166.186 244.738 166.31 244.835 166.454C244.933 166.599 245 166.761 245.034 166.932C245.069 167.102 245.069 167.278 245.035 167.448C245.001 167.619 244.933 167.781 244.836 167.926L238.311 177.663C238.193 177.839 238.034 177.985 237.848 178.087C237.662 178.19 237.454 178.246 237.241 178.252C237.229 178.252 237.216 178.253 237.204 178.253Z" fill="white"/>
<path d="M367.667 295.524C367.667 295.587 367.655 295.649 367.631 295.707C367.607 295.764 367.572 295.817 367.527 295.861C367.483 295.905 367.43 295.94 367.372 295.964C367.314 295.988 367.252 296 367.189 296H254.555C254.429 296 254.307 295.95 254.217 295.861C254.128 295.772 254.077 295.651 254.077 295.524C254.077 295.398 254.128 295.277 254.217 295.188C254.307 295.099 254.429 295.049 254.555 295.049H367.189C367.252 295.048 367.314 295.061 367.372 295.084C367.43 295.108 367.483 295.143 367.527 295.188C367.572 295.232 367.607 295.284 367.631 295.342C367.655 295.4 367.667 295.462 367.667 295.524Z" fill="#CCCCCC"/>
</g>
<defs>
<clipPath id="clip0_387:1378">
<rect width="370" height="296" fill="white"/>
</clipPath>
</defs>
</svg>
