<svg width="585" height="490" viewBox="0 0 585 490" fill="none" xmlns="http://www.w3.org/2000/svg">
<path d="M124.496 386.365C125.19 385.916 125.922 385.467 126.616 385.018C127.238 384.65 126.689 383.589 126.068 383.956C125.373 384.405 124.642 384.854 123.947 385.304C123.326 385.712 123.874 386.774 124.496 386.365Z" fill="#161616"/>
<path d="M114.696 391.633C121.387 388.448 128.078 385.263 134.769 382.078C141.46 378.893 147.712 375.748 155.207 376.606C162.045 377.382 168.772 380.281 175.171 382.976C181.862 385.793 188.406 388.978 194.768 392.572C196.011 393.266 197.145 391.143 195.865 390.448C185.774 384.813 175.207 379.832 164.385 376.279C159.156 374.564 153.672 373.421 148.224 374.278C142.776 375.136 137.657 378.035 132.648 380.444C126.287 383.466 119.925 386.488 113.599 389.55C112.283 390.122 113.417 392.245 114.696 391.633Z" fill="#161616"/>
<path d="M176.706 409.517C207.309 409.517 237.875 409.517 268.478 409.517C277.216 409.517 285.955 409.517 294.693 409.517C296.119 409.517 296.119 407.067 294.693 407.067C264.091 407.067 233.524 407.067 202.921 407.067C194.183 407.067 185.445 407.067 176.706 407.067C175.28 407.067 175.28 409.517 176.706 409.517Z" fill="#161616"/>
<path d="M274.95 417.521C313.304 417.521 351.658 417.521 390.012 417.521C400.945 417.521 411.84 417.521 422.772 417.521C424.198 417.521 424.198 415.071 422.772 415.071C384.418 415.071 346.064 415.071 307.71 415.071C296.778 415.071 285.882 415.071 274.95 415.071C273.561 415.071 273.561 417.521 274.95 417.521Z" fill="#161616"/>
<path d="M329.135 408.578C371.986 408.578 414.801 408.578 457.652 408.578C469.827 408.578 482.003 408.578 494.178 408.578C495.604 408.578 495.604 406.128 494.178 406.128C451.327 406.128 408.512 406.128 365.661 406.128C353.485 406.128 341.31 406.128 329.135 406.128C327.709 406.128 327.709 408.578 329.135 408.578Z" fill="#161616"/>
<path d="M199.412 395.675C205.92 398.247 212.392 400.983 218.79 403.882C220.106 404.495 220.655 402.127 219.375 401.514C212.977 398.615 206.505 395.879 199.997 393.307C198.681 392.776 198.096 395.144 199.412 395.675Z" fill="#161616"/>
<path d="M118.242 415.479C135.061 415.479 151.916 415.479 168.735 415.479C170.161 415.479 170.161 413.029 168.735 413.029C151.916 413.029 135.061 413.029 118.242 413.029C116.853 413.029 116.853 415.479 118.242 415.479Z" fill="#161616"/>
<path d="M268.368 441.98C289.794 441.98 311.22 441.98 332.645 441.98C334.071 441.98 334.071 439.53 332.645 439.53C311.22 439.53 289.794 439.53 268.368 439.53C266.942 439.53 266.942 441.98 268.368 441.98Z" fill="#161616"/>
<path d="M87.2749 415.643C81.4615 411.355 77.1106 405.149 74.0028 398.248C72.2478 394.409 70.895 390.408 69.7615 386.324C69.2496 384.568 68.4087 382.445 68.299 380.608C68.2625 379.791 68.0065 379.913 68.7743 379.873C69.1765 379.873 69.7615 380.199 70.1271 380.322C71.1509 380.649 72.1381 381.016 73.1618 381.343C73.8565 381.588 74.1124 380.403 73.4543 380.158C72.2112 379.75 70.9681 379.301 69.7249 378.893C69.1765 378.689 68.3356 378.239 67.714 378.484C66.6903 378.852 67.0193 380.036 67.2021 380.934C68.3356 385.916 69.7981 390.816 71.6262 395.512C74.9168 403.924 79.8162 411.559 86.7265 416.704C87.3115 417.154 87.8599 416.092 87.2749 415.643Z" fill="#E8E8E8"/>
<path d="M72.5401 379.954C67.0923 365.091 66.8729 348.88 66.6901 333.037C66.361 333.2 66.0685 333.323 65.7395 333.486C66.7632 334.629 67.8235 335.813 68.8473 336.957C69.3591 337.528 70.1269 336.63 69.6151 336.099C68.5913 334.956 67.531 333.772 66.5073 332.628C66.1782 332.261 65.5566 332.547 65.5566 333.078C65.7029 349.003 65.9588 365.336 71.4432 380.322C71.7357 381.016 72.796 380.689 72.5401 379.954Z" fill="#E8E8E8"/>
<path d="M69.8352 335.772C69.9083 325.686 70.8955 315.641 72.8698 305.801C72.6139 305.923 72.3214 306.046 72.0655 306.168C82.5224 314.457 86.6174 329.198 90.4199 342.183C94.8805 357.455 98.427 373.176 99.9627 389.182C100.401 393.633 100.657 398.084 100.767 402.576C100.877 407.231 101.096 412.09 99.9627 416.622C99.7799 417.398 100.84 417.725 101.023 416.949C101.974 413.029 101.937 408.905 101.9 404.903C101.864 400.82 101.681 396.737 101.352 392.653C100.694 384.446 99.5239 376.279 97.9517 368.235C96.3064 359.823 94.2589 351.534 91.8824 343.367C89.8714 336.385 87.7873 329.321 84.972 322.665C82.047 315.846 78.1714 309.557 72.6139 305.147C72.3214 304.943 71.8827 305.147 71.8095 305.515C69.8352 315.478 68.8114 325.605 68.7383 335.813C68.7383 336.589 69.8352 336.589 69.8352 335.772Z" fill="#E8E8E8"/>
<path d="M94.8801 356.108C100.255 338.386 111.882 324.217 118.536 307.189C118.207 307.067 117.841 306.985 117.512 306.863C118.17 314.825 118.719 322.829 119.231 330.832C119.487 334.834 119.669 338.835 119.889 342.837C119.962 344.715 120.072 346.553 120.145 348.431C120.218 349.86 120.291 350.228 119.304 351.167C118.609 351.82 117.658 352.31 116.854 352.882C116.269 353.29 116.818 354.352 117.403 353.944C118.609 353.086 119.852 352.229 121.059 351.371C121.205 351.249 121.351 351.044 121.315 350.84C120.693 336.181 119.816 321.481 118.609 306.863C118.573 306.332 117.841 305.924 117.585 306.536C110.858 323.686 99.231 337.937 93.8197 355.74C93.6004 356.557 94.6607 356.843 94.8801 356.108Z" fill="#E8E8E8"/>
<path d="M116.817 353.903C121.936 353.576 118.572 365.908 117.987 368.929C117.037 373.911 115.903 378.852 114.587 383.711C111.918 393.552 108.444 403.066 104.276 412.213C103.947 412.907 104.898 413.519 105.227 412.825C110.053 402.249 113.929 391.183 116.781 379.75C118.207 373.993 119.377 368.153 120.254 362.273C120.729 359.007 121.57 352.351 116.854 352.678C116.122 352.718 116.122 353.943 116.817 353.903Z" fill="#E8E8E8"/>
<path d="M117.109 308.618C114.367 333.527 104.642 356.434 98.7916 380.444C98.6088 381.22 99.6691 381.547 99.8519 380.771C105.738 356.638 115.428 333.608 118.206 308.618C118.279 307.802 117.183 307.842 117.109 308.618Z" fill="#E8E8E8"/>
<path d="M71.6625 306.005C80.1816 334.425 87.0553 363.458 92.2106 392.858C93.6731 401.188 94.9894 409.599 96.196 417.97C96.3056 418.746 97.3659 418.419 97.2563 417.644C93.0881 388.039 87.2016 358.721 79.5966 329.974C77.4394 321.808 75.136 313.682 72.7228 305.638C72.5035 304.943 71.4431 305.27 71.6625 306.005Z" fill="#E8E8E8"/>
<path d="M66.3239 343.408C75.9398 349.983 83.5814 359.619 88.2979 371.053C88.5904 371.788 89.5411 371.134 89.2486 370.44C84.4589 358.843 76.6345 349.043 66.8723 342.347C66.2873 341.938 65.7023 343 66.3239 343.408Z" fill="#E8E8E8"/>
<path d="M69.0663 387.141C78.6091 390.898 89.0294 395.226 94.2213 405.638C94.5504 406.333 95.501 405.72 95.1719 405.026C89.7972 394.328 79.1575 389.836 69.3588 385.957C68.7007 385.671 68.4082 386.855 69.0663 387.141Z" fill="#E8E8E8"/>
<path d="M82.3394 319.807C81.462 326.054 80.9501 332.302 80.877 338.631C80.877 339.407 81.9738 339.407 81.9738 338.631C82.0469 332.424 82.5223 326.259 83.3998 320.134C83.5094 319.358 82.4491 319.031 82.3394 319.807Z" fill="#E8E8E8"/>
<path d="M101.57 338.509C102.521 345.859 103.435 353.209 104.386 360.599C104.495 361.375 105.556 361.049 105.446 360.273C104.495 352.923 103.581 345.573 102.631 338.182C102.521 337.365 101.461 337.733 101.57 338.509Z" fill="#E8E8E8"/>
<path d="M111.041 343.164C114.551 339.652 117.549 335.609 119.925 331.036C120.291 330.342 119.34 329.729 118.975 330.424C116.635 334.874 113.71 338.876 110.273 342.306C109.724 342.837 110.529 343.694 111.041 343.164Z" fill="#E8E8E8"/>
<path d="M439.81 405.352C436.447 394.287 434.545 382.812 434.107 371.134C433.814 371.297 433.558 371.502 433.266 371.665C435.094 372.849 436.885 374.074 438.714 375.258C439.116 375.503 439.664 375.095 439.518 374.564C437.873 369.378 437.58 363.825 438.823 358.476C440.103 353.086 442.918 348.186 445.295 343.327C450.231 333.159 455.203 322.992 460.139 312.824C459.81 312.783 459.481 312.742 459.152 312.661C460.322 320.705 461.492 328.79 462.662 336.834C463.247 340.795 463.832 344.756 464.38 348.717C464.673 350.677 465.477 353.167 464.417 354.964C463.539 356.434 461.931 357.251 460.505 357.945C460.029 358.19 460.249 358.884 460.651 359.047C462.223 359.782 464.124 360.722 464.892 362.518C465.733 364.56 464.709 367.5 464.234 369.623C463.32 373.788 462.223 377.912 460.943 381.996C458.348 390.203 455.02 398.043 451.035 405.516C450.669 406.21 451.62 406.822 451.986 406.128C456.556 397.512 460.285 388.366 463.028 378.811C463.686 376.483 464.307 374.115 464.856 371.747C465.368 369.501 466.062 367.092 466.245 364.764C466.538 360.967 463.613 359.17 460.907 357.904C460.943 358.272 460.98 358.639 461.053 359.007C463.21 357.945 465.733 356.434 465.989 353.494C466.135 351.575 465.587 349.452 465.331 347.614C465.002 345.246 464.636 342.877 464.307 340.468C462.954 331.077 461.565 321.726 460.212 312.334C460.139 311.803 459.408 311.762 459.225 312.171C453.923 323.032 448.622 333.894 443.32 344.797C440.98 349.615 438.384 354.392 437.434 359.864C436.556 364.887 436.959 370.032 438.494 374.85C438.75 374.605 439.043 374.401 439.298 374.156C437.47 372.972 435.679 371.747 433.851 370.562C433.485 370.317 433.01 370.603 433.01 371.093C433.412 382.853 435.35 394.491 438.75 405.638C438.969 406.414 440.03 406.087 439.81 405.352Z" fill="#E8E8E8"/>
<path d="M464.929 340.101C472.534 331.199 480.102 322.216 487.561 313.151C487.269 312.947 486.939 312.742 486.647 312.538C485.477 318.99 484.965 325.605 485.258 332.179C485.404 335.568 485.843 338.876 486.208 342.224C486.391 343.735 486.537 345.287 486.574 346.797C486.61 347.614 486.72 348.88 485.916 349.411C485.258 349.819 483.612 349.737 482.808 349.819C482.406 349.86 482.004 350.513 482.406 350.881C486.684 354.678 482.991 361.62 481.199 365.867C479.261 370.481 477.177 374.972 474.91 379.382C470.304 388.366 465.002 396.9 459.115 404.903C458.677 405.516 459.444 406.373 459.883 405.761C466.391 396.941 472.168 387.467 477.141 377.504C479.664 372.441 482.004 367.214 484.051 361.906C485.514 358.067 486.61 353.086 483.21 350.064C483.064 350.432 482.954 350.758 482.808 351.126C484.855 350.881 487.415 351.248 487.671 348.431C487.963 344.674 487.049 340.672 486.684 336.957C485.879 328.953 486.245 320.868 487.707 312.947C487.817 312.375 487.195 311.885 486.793 312.334C479.298 321.399 471.766 330.382 464.161 339.284C463.649 339.815 464.417 340.672 464.929 340.101Z" fill="#E8E8E8"/>
<path d="M482.406 320.215C477.031 332.506 476.081 346.634 472.315 359.538C468.329 373.258 462.699 386.283 456.666 398.982C456.337 399.677 457.287 400.289 457.616 399.595C463.467 387.223 468.951 374.564 472.936 361.293C474.911 354.678 476.373 347.982 477.726 341.163C479.079 334.221 480.541 327.238 483.357 320.828C483.649 320.133 482.735 319.521 482.406 320.215Z" fill="#E8E8E8"/>
<path d="M457.908 320.134C456.885 346.512 447.488 371.298 445.477 397.513C445.404 398.289 446.501 398.289 446.574 397.513C448.585 371.298 457.982 346.512 459.005 320.134C459.005 319.358 457.908 319.358 457.908 320.134Z" fill="#E8E8E8"/>
<path d="M439.518 353.453C441.821 360.64 444.673 367.541 448.074 374.156C448.439 374.85 449.39 374.237 449.024 373.543C445.66 367.01 442.845 360.191 440.578 353.127C440.359 352.392 439.299 352.718 439.518 353.453Z" fill="#E8E8E8"/>
<path d="M450.56 330.669C451.876 336.222 453.156 341.775 454.472 347.329C454.655 348.104 455.715 347.778 455.533 347.002C454.216 341.449 452.937 335.895 451.62 330.342C451.438 329.566 450.377 329.893 450.56 330.669Z" fill="#E8E8E8"/>
<path d="M461.273 327.565C459.628 330.954 458.019 334.384 456.374 337.773C456.045 338.468 456.995 339.08 457.325 338.386C458.97 334.997 460.579 331.567 462.224 328.178C462.553 327.483 461.602 326.871 461.273 327.565Z" fill="#E8E8E8"/>
<path d="M469.097 333.323C469.645 342.306 470.449 351.289 471.546 360.232C471.656 361.008 472.68 360.681 472.607 359.905C471.546 351.085 470.742 342.224 470.194 333.323C470.157 332.547 469.06 332.547 469.097 333.323Z" fill="#E8E8E8"/>
<path d="M477.287 342.347C477.653 339.978 479.664 338.141 481.053 336.385C482.479 334.588 483.941 332.792 485.367 330.995C485.843 330.423 485.075 329.525 484.599 330.137C482.844 332.302 481.126 334.466 479.371 336.63C478.091 338.222 476.592 339.774 476.227 341.979C476.117 342.796 477.177 343.122 477.287 342.347Z" fill="#E8E8E8"/>
<path d="M68.0429 297.879C77.7685 297.389 86.836 293.429 96.2691 291.183C106.726 288.692 117.11 289.917 127.42 292.612C137.512 295.266 147.457 298.696 157.475 301.636C167.529 304.617 177.584 307.434 187.675 310.129C228.296 320.991 269.429 329.729 310.781 336.303C333.962 339.978 357.252 342.959 380.579 345.246C381.274 345.328 381.274 344.103 380.579 344.021C338.752 339.897 297.144 333.568 255.864 325.034C235.207 320.746 214.622 315.969 194.184 310.579C173.964 305.27 153.928 299.186 133.892 293.143C123.033 289.876 111.772 287.222 100.51 289.019C89.5416 290.774 79.231 296.042 68.0795 296.573C67.3482 296.654 67.3482 297.879 68.0429 297.879Z" fill="#E8E8E8"/>
<path d="M243.873 324.666C276.779 321.113 309.393 314.662 341.385 305.311C357.472 300.615 373.267 294.898 389.099 289.223C396.74 286.487 404.492 283.914 412.389 282.281C420.908 280.484 429.5 280.076 438.166 280.688C447.782 281.383 457.398 282.771 466.977 283.955C476.593 285.139 486.245 286.283 495.861 287.467C496.556 287.548 496.556 286.323 495.861 286.242C478.677 284.159 461.493 281.832 444.272 279.994C435.862 279.096 427.416 278.728 419.044 279.913C411.146 280.974 403.358 283.138 395.753 285.67C379.849 290.938 364.2 297.144 348.185 302.044C332.208 306.944 316.084 311.109 299.813 314.539C281.313 318.459 262.629 321.44 243.873 323.441C243.178 323.523 243.178 324.748 243.873 324.666Z" fill="#E8E8E8"/>
<path d="M250.964 384.283C279.118 384.079 300.945 361.171 325.698 349.615C332.901 346.267 340.469 343.817 348.257 343.164C348.952 343.123 348.952 341.898 348.257 341.938C320.397 344.266 299.264 367.255 274.035 377.872C266.65 380.975 258.899 382.976 250.964 383.058C250.233 383.058 250.233 384.283 250.964 384.283Z" fill="#E8E8E8"/>
<path d="M351.767 341.244C382.443 333.853 405.331 307.761 433.082 293.224C441.089 289.018 449.572 285.874 458.383 284.568C459.078 284.445 459.078 283.22 458.383 283.343C426.976 287.998 403.32 314.131 376.154 329.811C368.33 334.343 360.103 338.018 351.474 340.101C350.78 340.223 351.072 341.408 351.767 341.244Z" fill="#E8E8E8"/>
<path d="M322.957 169.009C336.522 162.026 351.841 175.746 365.15 167.049C365.771 166.641 365.223 165.579 364.601 165.987C351.439 174.603 336.01 160.965 322.408 167.947C321.75 168.274 322.299 169.336 322.957 169.009Z" fill="#E8E8E8"/>
<path d="M258.752 92.8549C273.56 89.3432 288.331 94.5291 302.554 98.8982C316.74 103.267 331.036 105.962 345.771 105.636C354.071 105.432 362.334 104.37 370.451 102.532C371.146 102.369 370.853 101.185 370.158 101.348C355.131 104.778 339.592 105.391 324.382 103.022C309.794 100.736 296.046 94.7332 281.604 91.8341C273.926 90.2824 266.101 89.8741 258.46 91.7116C257.802 91.8341 258.094 93.0182 258.752 92.8549Z" fill="#E8E8E8"/>
<path d="M87.9693 140.916C101.278 132.545 116.744 131.851 130.93 137.772C138.097 140.753 144.934 144.428 152.319 146.714C159.376 148.919 166.652 150.226 173.964 150.675C182.374 151.165 190.82 150.43 199.119 148.593C199.814 148.429 199.522 147.245 198.827 147.408C183.434 150.879 167.42 150.226 152.319 145.448C144.824 143.08 137.877 139.323 130.601 136.343C123.764 133.566 116.671 132.137 109.395 132.627C101.68 133.158 94.185 135.608 87.4575 139.854C86.7993 140.222 87.3478 141.283 87.9693 140.916Z" fill="#E8E8E8"/>
<path d="M440.505 136.057C433.887 128.013 431.437 116.416 433.448 105.799C434.472 100.45 436.592 95.3051 439.883 91.1809C442.077 88.4042 444.563 86.8934 447.817 86.1993C451.071 85.5051 454.398 85.0559 457.726 85.0151C469.316 84.9334 480.577 92.6509 483.612 105.636C485.148 112.251 484.014 118.784 481.162 124.705C478.383 130.381 474.618 135.853 469.572 139.16C459.993 145.408 446.903 143.611 439.042 134.873C438.53 134.301 437.762 135.199 438.274 135.73C445.697 143.938 457.433 146.306 467.049 141.896C472.424 139.446 476.555 134.832 479.773 129.523C483.319 123.684 485.879 117.11 485.367 109.923C484.416 96.5709 474.654 86.3626 463.1 84.2393C459.7 83.6268 456.227 83.7084 452.826 84.1576C449.755 84.5251 446.318 84.8518 443.503 86.4034C438.786 88.9759 435.569 95.0601 433.777 100.328C429.609 112.578 431.803 127.237 439.773 136.914C440.212 137.486 440.98 136.628 440.505 136.057Z" fill="#E8E8E8"/>
<path d="M126.177 262.844C142.667 260.312 158.499 267.703 173.928 273.134C181.533 275.829 189.284 278.197 197.255 278.851C205.664 279.545 213.708 277.789 221.642 274.767C230.088 271.542 238.241 267.54 247.016 265.58C255.206 263.742 263.579 263.375 271.916 263.824C288.881 264.763 305.48 268.969 322.189 271.991C340.105 275.176 358.605 277.013 376.338 271.542C377.033 271.337 376.74 270.153 376.045 270.357C343.103 280.525 309.575 265.907 276.669 262.967C268.588 262.232 260.398 262.191 252.318 263.375C243.689 264.641 235.609 267.703 227.492 271.092C219.192 274.563 210.783 277.748 201.789 277.83C193.526 277.871 185.445 275.788 177.584 273.134C160.802 267.54 143.837 258.924 125.885 261.701C125.19 261.782 125.519 262.967 126.177 262.844Z" fill="#E8E8E8"/>
<path d="M253.78 245.735C260.434 241.815 267.527 238.344 275.059 237.324C282.591 236.303 289.794 238.426 296.851 241.121C303.871 243.775 310.781 246.47 318.057 248.104C325.15 249.696 332.353 250.554 339.592 250.676C354.436 250.921 369.025 247.899 382.955 242.183C396.959 236.425 410.194 228.585 423.942 222.174C439.554 214.865 456.373 209.353 473.447 211.394C474.142 211.476 474.142 210.251 473.447 210.169C442.589 206.494 415.423 226.339 388.001 238.712C373.778 245.123 358.97 249.124 343.614 249.451C336.045 249.614 328.44 248.961 320.982 247.491C313.56 246.021 306.466 243.571 299.373 240.794C291.732 237.814 283.907 235.119 275.717 236.058C267.747 236.956 260.288 240.59 253.231 244.714C252.61 245.041 253.158 246.103 253.78 245.735Z" fill="#E8E8E8"/>
<path d="M176.414 166.273C188.663 158.066 203.068 164.068 215.5 168.397C228.37 172.888 241.788 175.012 255.316 174.277C262.921 173.868 270.453 172.562 277.802 170.479C278.497 170.275 278.204 169.091 277.51 169.295C263.908 173.174 249.722 174.195 235.792 172.194C228.662 171.173 221.715 169.295 214.842 166.845C208.516 164.599 202.191 162.149 195.537 161.251C188.809 160.352 181.789 161.21 175.902 165.171C175.281 165.62 175.829 166.682 176.414 166.273Z" fill="#E8E8E8"/>
<path d="M345.698 411.518C345.698 414.663 348.331 416.949 351.365 419.644C354.217 422.135 358.788 425.32 365.259 426.668C366.319 430.751 368.513 438.632 369.976 438.223C371.182 437.897 371.731 431.568 371.036 426.423C370.78 424.503 370.524 422.707 369.61 420.869C367.453 416.663 364.638 418.052 361.603 414.744C357.8 410.579 359.263 405.108 356.338 403.148C352.572 400.616 345.698 406.373 345.698 411.518Z" fill="#161616"/>
<path d="M345.734 417.643C345.405 420.706 347.818 423.523 350.597 426.831C355.204 432.303 359.957 435.038 363.357 436.427C364.089 442.184 365.405 450.555 366.867 450.514C368.22 450.473 369.646 443.532 369.354 437.488C369.244 435.243 369.171 433.568 368.476 431.731C366.685 426.953 363.504 428.097 361.127 424.054C358.458 419.44 360.725 414.908 358.495 412.09C355.277 408.007 346.319 412.213 345.734 417.643Z" fill="#161616"/>
<path d="M309.977 406.251C308.624 406.087 308.002 409.232 305.553 414.172C304.2 416.949 300.836 423.768 295.717 427.647C291.695 430.669 288.185 430.71 288.222 432.139C288.259 433.201 290.233 433.895 291.293 434.058C293.889 434.467 295.827 432.547 296.449 431.935C300.58 428.995 303.834 425.973 306.138 423.605C311.841 417.766 312.5 415.234 312.609 413.356C312.792 410.048 311.403 406.414 309.977 406.251Z" fill="#161616"/>
<path d="M310.087 401.963C312.061 403.148 314.95 404.658 318.533 405.802C320.8 406.496 327.783 408.415 338.459 406.332C350.269 404.005 353.267 399.35 356.485 402.78C359.848 406.373 360.507 415.928 357.984 421.645C356.448 425.116 353.304 426.463 347.052 429.199C342.152 431.322 338.496 432.915 333.231 433.037C327.052 433.201 322.518 431.2 319.849 430.057C314.291 427.566 309.429 425.402 307.527 419.154C306.723 416.541 306.686 414.009 306.796 412.335C307.93 408.864 309.026 405.393 310.087 401.963Z" fill="#161616"/>
<path d="M347.307 407.394C347.6 405.026 350.049 404.413 352.17 402.903C357.764 398.86 356.996 391.143 360.835 390.081C364.089 389.183 365.479 394.532 368.769 393.511C372.645 392.286 373.742 383.956 375.095 384.528C376.082 384.936 376.667 390.081 375.095 393.307C373.486 396.573 370.122 396.941 366.283 397.349C362.444 397.758 362.151 396.778 360.543 397.758C357.581 399.636 358.13 403.27 354.51 407.149C352.462 409.354 349.245 411.518 347.892 409.926C347.417 409.354 347.197 408.293 347.307 407.394Z" fill="#161616"/>
<path d="M311.658 411.029C310.305 410.865 309.684 414.009 307.234 418.95C305.881 421.727 302.518 428.546 297.399 432.425C293.377 435.447 289.867 435.488 289.904 436.917C289.94 437.979 291.915 438.673 292.975 438.836C295.571 439.244 297.509 437.325 298.13 436.713C302.262 433.773 305.516 430.751 307.819 428.383C313.523 422.544 314.181 420.012 314.291 418.134C314.474 414.826 313.084 411.192 311.658 411.029Z" fill="#161616"/>
<path d="M292.828 405.026C293.706 411.151 292.902 412.417 294.254 414.418C296.302 417.48 300.141 417.889 300.799 417.97C303.651 418.297 304.09 416.99 307.161 417.358C310.598 417.766 311.146 419.44 312.865 418.828C315.387 417.93 316.119 413.479 316.338 412.09C316.375 411.968 316.375 411.845 316.375 411.764C316.667 409.028 316.082 406.578 315.278 404.659C310.525 402.372 307.709 399.514 305.991 397.35C304.163 395.022 303.029 392.654 302.042 392.94C300.945 393.266 300.799 396.655 300.836 399.31C299.519 399.718 298.203 400.126 296.887 400.535C293.487 396.696 292.317 396.41 291.841 396.737C291.073 397.227 292.061 399.514 292.828 405.026Z" fill="#161616"/>
<path d="M299.045 410.498C299.337 411.805 300.434 412.662 301.64 412.58C301.823 412.58 301.823 412.254 301.64 412.254C300.58 412.376 299.593 411.6 299.337 410.416C299.264 410.253 299.008 410.335 299.045 410.498Z" fill="white"/>
<path d="M298.934 410.416C298.934 410.906 298.934 411.437 298.824 411.927C298.788 412.172 298.714 412.376 298.605 412.58C298.605 412.58 298.093 413.397 298.02 413.275C297.947 413.111 297.691 413.275 297.8 413.438C298.02 413.887 298.568 413.193 298.714 412.989C299.19 412.254 299.226 411.274 299.226 410.416C299.19 410.212 298.934 410.212 298.934 410.416Z" fill="white"/>
<path d="M299.007 410.253C298.934 410.375 299.117 410.294 299.081 410.335C298.971 410.416 298.971 410.253 299.081 410.212C299.19 410.212 299.19 410.375 299.154 410.416C299.117 410.457 299.117 410.457 299.081 410.457C299.044 410.457 299.007 410.457 299.007 410.416V410.375C298.971 410.375 298.934 410.375 298.934 410.335C298.788 410.212 298.642 410.498 298.788 410.58C298.971 410.702 299.3 410.702 299.3 410.375C299.3 410.13 299.007 409.967 298.825 410.171C298.642 410.375 298.752 410.702 298.971 410.743C299.227 410.825 299.446 410.62 299.446 410.335C299.446 410.09 299.3 409.845 299.044 409.885C298.825 409.926 298.642 410.212 298.752 410.457C298.861 410.661 299.117 410.661 299.263 410.539C299.41 410.416 299.41 410.13 299.227 410.008C299.044 409.885 298.752 410.008 298.752 410.253C298.752 410.539 299.154 410.58 299.263 410.335C299.337 410.212 299.081 410.049 299.007 410.253Z" fill="white"/>
<path d="M295.461 408.089C295.9 407.354 296.887 407.19 297.472 407.803C297.619 407.925 297.801 407.721 297.655 407.599C296.924 406.864 295.754 407.068 295.205 407.966C295.132 408.089 295.388 408.252 295.461 408.089Z" fill="white"/>
<path d="M300.727 406.863C301.275 406.047 302.262 405.802 303.103 406.21C303.25 406.292 303.396 406.047 303.25 405.965C302.262 405.475 301.166 405.802 300.507 406.741C300.398 406.863 300.617 406.986 300.727 406.863Z" fill="white"/>
<path d="M302.919 395.267C303.395 396.288 303.724 397.39 303.87 398.534C303.906 398.738 304.162 398.656 304.126 398.452C303.943 397.268 303.614 396.165 303.139 395.104C303.102 394.94 302.846 395.104 302.919 395.267Z" fill="white"/>
<path d="M301.75 398.493C301.86 398.82 302.043 399.146 302.262 399.391C302.372 399.514 302.554 399.35 302.481 399.187C302.335 398.86 302.262 398.493 302.262 398.125C302.225 398.166 302.152 398.248 302.116 398.289C302.335 398.289 302.554 398.248 302.737 398.248C302.81 398.248 302.884 398.166 302.884 398.044C302.81 397.799 302.774 397.513 302.701 397.268C302.664 397.35 302.628 397.391 302.554 397.472C302.81 397.472 303.03 397.472 303.286 397.472C303.469 397.472 303.469 397.146 303.286 397.146C303.03 397.146 302.81 397.146 302.554 397.146C302.481 397.146 302.408 397.227 302.408 397.35C302.481 397.595 302.518 397.88 302.591 398.125C302.628 398.044 302.664 398.003 302.737 397.921C302.518 397.921 302.299 397.962 302.116 397.962C302.043 397.962 301.969 398.044 301.969 398.125C301.969 398.575 302.043 398.942 302.225 399.35C302.299 399.269 302.372 399.228 302.445 399.146C302.262 398.901 302.079 398.615 301.969 398.289C301.896 398.166 301.677 398.33 301.75 398.493Z" fill="white"/>
<path d="M297.508 411.192C296.777 410.865 296.046 410.457 295.388 409.967C295.241 409.845 295.095 410.13 295.241 410.212C295.936 410.702 296.667 411.11 297.435 411.478C297.618 411.56 297.691 411.274 297.508 411.192Z" fill="white"/>
<path d="M296.923 411.804C296.521 411.886 296.156 412.008 295.827 412.213C295.68 412.294 295.79 412.58 295.973 412.458C296.302 412.253 296.631 412.131 296.997 412.09C297.143 412.049 297.07 411.763 296.923 411.804Z" fill="white"/>
<path d="M301.055 410.212C301.786 409.559 302.554 408.987 303.358 408.415C303.504 408.334 303.358 408.048 303.212 408.17C302.371 408.742 301.603 409.354 300.835 410.008C300.726 410.13 300.908 410.334 301.055 410.212Z" fill="white"/>
<path d="M301.676 410.906C302.517 410.661 303.358 410.416 304.162 410.212C304.345 410.171 304.272 409.886 304.089 409.926C303.248 410.171 302.407 410.416 301.603 410.62C301.42 410.661 301.493 410.988 301.676 410.906Z" fill="white"/>
<path d="M297.618 413.642C298.861 413.152 299.154 411.682 299.19 410.375C299.19 410.171 298.934 410.171 298.898 410.375C298.825 411.519 298.605 412.866 297.508 413.315C297.362 413.397 297.435 413.724 297.618 413.642Z" fill="white"/>
<path d="M297.619 413.642C298.313 413.356 298.825 412.703 298.971 411.886C299.008 411.682 298.752 411.6 298.716 411.804C298.606 412.539 298.204 413.111 297.582 413.356C297.399 413.438 297.472 413.723 297.619 413.642Z" fill="white"/>
<path d="M292.573 398.86C293.414 399.881 294.035 401.024 294.474 402.331C294.547 402.494 294.803 402.453 294.73 402.249C294.291 400.902 293.633 399.718 292.756 398.656C292.646 398.533 292.463 398.738 292.573 398.86Z" fill="white"/>
<path d="M294.035 401.106C293.816 401.147 293.597 401.147 293.377 401.188C293.268 401.188 293.195 401.351 293.268 401.433C293.414 401.555 293.524 401.8 293.451 402.004C293.414 402.168 293.268 402.249 293.268 402.413C293.268 402.494 293.304 402.617 293.377 402.658C293.451 402.739 293.597 402.78 293.597 402.862C293.597 403.066 293.889 403.066 293.889 402.862C293.889 402.699 293.816 402.658 293.743 402.535C293.706 402.494 293.597 402.454 293.597 402.413C293.56 402.29 293.67 402.209 293.706 402.127C293.816 401.8 293.743 401.392 293.487 401.188C293.451 401.269 293.414 401.351 293.377 401.433C293.597 401.392 293.816 401.392 294.035 401.351C294.218 401.392 294.218 401.065 294.035 401.106Z" fill="white"/>
<path d="M334.656 364.396C342.992 367.01 351.329 369.664 359.665 372.277C362.042 374.85 365.734 378.361 370.89 381.22C379.774 386.161 390.524 387.835 391.401 385.507C391.803 384.486 389.537 382.2 385.003 377.626C381.127 373.747 379.409 372.563 376.667 369.746C374.656 367.663 371.877 364.519 368.988 360.068C365.661 360.027 361.639 359.66 357.179 358.598C349.976 356.842 344.272 353.902 340.323 351.371C338.422 355.74 336.521 360.068 334.656 364.396Z" fill="#161616"/>
<path d="M254.219 261.211C248.625 270.888 252.72 282.934 257.253 296.164C263.725 315.192 273.67 327.769 278.752 333.649C301.494 360.027 329.428 371.297 345.515 376.197C347.161 367.786 348.769 359.333 350.415 350.921C339.3 344.184 331.11 336.834 325.516 331.117C316.119 321.521 300.397 305.474 293.816 280.566C289.758 265.131 292.317 258.148 286.284 253.166C277.875 246.306 260.727 249.9 254.219 261.211Z" fill="#EC615B"/>
<path opacity="0.14" d="M290.963 265.784C287.892 271.338 284.017 280.362 285.15 290.774C286.466 302.82 293.779 310.456 311.182 327.606C326.466 342.633 339.153 354.842 348.038 363.294C348.805 359.17 349.537 355.087 350.304 350.963C344.528 347.328 337.032 342.02 328.952 334.588C324.491 330.464 317.983 324.421 311 314.866C306.173 308.251 299.702 299.268 295.205 285.588C292.609 277.667 291.512 270.684 290.963 265.784Z" fill="#6D6C6C"/>
<path opacity="0.14" d="M300.982 299.88C301.97 303.677 303.725 309.149 306.906 315.152C309.684 320.378 313.596 326.095 327.271 339.08C332.719 344.225 339.958 350.799 348.916 358.027C349.428 355.699 349.903 353.372 350.415 351.044C345.369 347.941 341.311 345.001 338.422 342.755C329.465 335.813 323.322 329.239 319.629 325.237C317.362 322.787 314.876 320.052 311.768 316.132C306.942 309.884 303.432 304.167 300.982 299.88Z" fill="#6D6C6C"/>
<path d="M220.873 353.984C225.516 358.639 230.16 363.294 234.803 367.949C229.721 388.529 228.186 399.228 230.233 400.167C232.683 401.269 240.288 388.121 253.085 360.722C244.821 354.27 236.595 347.819 228.332 341.408C225.809 345.573 223.323 349.779 220.873 353.984Z" fill="#161616"/>
<path d="M253.816 251.942C237.51 264.927 225.48 274.564 219.484 279.341C197.51 296.899 186.505 305.883 185.518 314.744C183.616 332.016 201.13 349.901 205.883 354.76C210.344 359.334 214.585 362.478 217.583 364.438C219.996 363.866 226.687 361.988 232.281 355.169C237.18 349.248 238.606 342.755 239.082 340.019C232.903 333.568 226.687 327.075 220.508 320.624C232.72 313.927 242.738 308.782 249.612 305.352C259.301 300.493 262.701 299.064 267.93 294.939C274.547 289.754 283.359 282.689 285.845 270.521C286.467 267.459 288.149 259.374 284.346 253.657C279.593 246.47 267.162 245.286 253.816 251.942Z" fill="#EC615B"/>
<path opacity="0.12" d="M272.39 260.966C273.633 261.946 284.566 270.848 282.737 279.382C282.518 280.321 281.97 282.281 276.851 287.262C270.014 293.959 263.579 297.797 260.361 299.635C253.487 303.596 248.515 305.964 243.652 308.332C237.985 311.068 229.831 315.152 219.886 320.419C226.175 326.912 232.427 333.404 238.716 339.897C238.497 341.775 238.021 344.143 237.071 346.716C235.608 350.717 233.597 353.617 232.135 355.413C230.051 350.963 227.162 345.736 223.177 340.427C216.45 331.403 209.247 325.605 203.872 322.012C217.035 315.723 234.841 304.984 252.135 286.772C260.544 277.871 267.198 268.969 272.39 260.966Z" fill="#6D6C6C"/>
<path opacity="0.19" d="M281.75 277.626C279.922 275.421 268.185 284.323 262.482 288.57C251.732 296.614 235.974 307.843 214.694 321.441C222.921 327.77 231.147 334.14 239.374 340.469C233.085 333.772 226.76 327.076 220.471 320.379C222.482 319.276 225.882 317.439 230.124 315.193C237.253 311.396 244.931 307.435 255.242 302.045C257.034 301.106 262.299 298.329 268.953 294.164C273.304 291.428 277.582 288.57 280.361 282.976C281.165 281.383 282.554 278.606 281.75 277.626Z" fill="#6D6C6C"/>
<path d="M266.834 173.746C265.005 171.541 261.203 172.44 259.302 172.889C252.757 174.4 249.064 178.769 242.958 184.771C239.668 187.997 234.878 192.448 228.699 197.511C226.871 188.324 225.079 179.177 223.251 169.99C223.982 168.969 225.189 166.968 225.591 164.191C225.81 162.721 226.359 157.535 223.178 154.269C219.668 150.635 213.306 151.165 210.381 154.922C207.42 158.72 208.955 164.518 209.686 167.295C210.381 169.908 211.441 171.909 212.282 173.215C212.026 176.115 211.77 180.32 212.026 185.384C212.282 190.815 212.575 196.368 214.878 202.493C216.743 207.434 218.973 213.355 223.69 215.519C228.809 217.887 234.11 214.498 244.457 207.679C260.691 196.98 264.567 188.12 265.481 185.955C266.468 183.628 269.283 176.727 266.834 173.746Z" fill="white" stroke="#161616" stroke-width="2" stroke-miterlimit="10"/>
<path d="M222.117 165.988C220.874 164.804 219.558 163.456 219.119 161.618C218.936 160.802 218.79 159.658 220.143 159.863C220.472 159.903 220.947 160.353 221.203 160.557C221.971 161.128 222.666 161.863 223.287 162.598C223.543 162.884 223.909 162.435 223.689 162.149C222.885 161.169 219.631 157.413 218.644 159.822C217.656 162.272 220.326 165.048 221.751 166.355C222.007 166.682 222.373 166.233 222.117 165.988Z" fill="#161616"/>
<path d="M209.906 155.698C210.089 158.678 210.93 163.211 214.513 162.558C214.879 162.476 214.696 161.904 214.367 161.986C211.186 162.558 210.601 158.229 210.454 155.698C210.418 155.33 209.869 155.33 209.906 155.698Z" fill="#161616"/>
<path d="M213.562 153.166C215.134 155.616 215.499 158.556 214.622 161.414C214.512 161.781 215.024 161.945 215.134 161.577C216.048 158.596 215.646 155.411 214 152.839C213.818 152.512 213.342 152.839 213.562 153.166Z" fill="#161616"/>
<path d="M217.657 152.145C219.047 155.003 218.718 158.392 216.816 160.883C216.597 161.169 216.963 161.618 217.218 161.332C219.266 158.678 219.668 154.962 218.133 151.859C217.986 151.492 217.511 151.818 217.657 152.145Z" fill="#161616"/>
<path d="M222.191 154.228C222.813 155.779 222.484 157.535 221.387 158.678C221.131 158.964 221.533 159.373 221.789 159.128C223.069 157.78 223.434 155.698 222.703 153.901C222.52 153.533 222.045 153.86 222.191 154.228Z" fill="#161616"/>
<path opacity="0.17" d="M213.452 152.513C214.074 152.308 214.841 152.063 215.573 152.39C217.547 153.288 218.425 157.821 216.67 160.189C215.975 161.169 214.988 161.537 214.366 161.741C214.403 162.435 214.439 163.578 214.512 165.008C214.512 165.008 214.695 168.805 214.915 172.031C215.5 180.688 216.085 188.936 219.229 197.511C220.216 200.247 221.898 204.085 224.75 208.413C226.212 208.087 229.174 207.27 232.647 205.637C252.574 196.204 262.592 171.133 266.139 173.174C266.797 173.542 267.345 174.971 267.418 175.216C268.076 177.013 267.747 178.768 267.236 180.647C265.919 185.383 263.908 188.854 263.323 189.834C261.166 193.428 259.119 195.755 258.57 196.368C256.157 199.063 254 200.696 250.015 203.554C242.556 208.863 238.826 211.517 236.304 212.66C231.185 214.988 226.834 216.988 222.812 214.865C220.399 213.599 219.192 211.435 217.437 208.168C213.708 201.145 213.013 194.285 212.465 187.915C212.136 184.281 211.916 179.299 212.282 173.338C210.235 169.663 209.43 166.355 209.065 164.273C208.589 161.537 208.224 159.25 209.247 156.759C209.54 156.269 210.783 153.37 213.452 152.513Z" fill="#6D6C6C"/>
<path opacity="0.2" d="M267.492 177.258C267.089 177.053 265.846 179.177 264.53 181.382C262.629 184.608 261.678 186.241 260.106 189.916C255.682 200.288 240.947 208.658 239.046 209.761C236.048 211.435 231.734 213.518 226.176 214.988C223.617 212.374 218.9 206.943 216.231 199.267C214.769 195.061 214.22 190.896 214.11 190.202C213.708 187.303 213.672 185.057 213.635 182.484C213.599 178.932 213.708 175.828 213.928 173.338C213.123 171.663 212.355 169.744 211.624 167.703C210.381 164.15 209.577 160.843 209.065 157.943C208.919 160.23 208.955 163.619 209.979 167.498C210.637 169.948 211.478 171.949 212.282 173.46C211.588 180.075 211.844 185.588 212.282 189.508C212.282 189.508 213.27 198.573 217.511 208.618C218.205 210.251 219.193 212.333 221.204 213.967C223.8 216.049 226.578 216.213 227.456 216.213C228.918 216.253 230.6 216.008 237.291 212.088C243.105 208.699 247.126 205.8 248.625 204.698C251.441 202.656 252.83 201.594 254.329 200.288C257.4 197.552 262.409 193.06 265.481 185.71C267.053 181.872 268.004 177.543 267.492 177.258Z" fill="#6D6C6C"/>
<path d="M270.123 164.109C263.029 169.54 254.474 178.115 250.891 190.937C248.258 200.369 249.977 206.698 249.611 221.929C249.392 230.627 248.587 243.244 245.735 258.679C247.417 260.68 257.435 272.073 272.865 271.664C282.444 271.419 289.318 266.723 292.243 264.437C290.049 249.083 290.634 236.833 291.585 228.381C293.303 213.395 297.764 204.698 297.727 187.629C297.727 179.299 296.703 172.48 295.826 167.948C293.888 166.314 290.195 163.66 285.003 162.517C278.057 161.088 272.463 163.088 270.123 164.109Z" fill="white" stroke="#161616" stroke-width="2" stroke-miterlimit="10"/>
<path opacity="0.13" d="M280.982 162.599C281.055 166.6 281.055 172.48 280.47 179.504C279.812 187.874 278.276 199.389 271.805 221.889C268.368 233.853 263.359 249.41 256.192 267.295C260.178 269.704 263.724 270.725 266.101 271.174C274.912 272.849 282.042 269.868 285.442 268.398C288.441 267.091 290.781 265.621 292.389 264.519C291.768 260.313 291.11 254.555 290.89 247.614C290.781 244.347 290.598 233.689 292.865 218.826C294.949 205.106 296.594 204.371 297.581 195.265C298.788 183.873 297.362 174.195 295.863 167.58C294.035 166.233 291.183 164.436 287.417 163.415C284.931 162.762 282.7 162.599 280.982 162.599Z" fill="#6D6C6C"/>
<path opacity="0.15" d="M287.161 163.701C287.526 171.337 287.673 181.259 286.905 192.774C286.539 198.409 285.735 209.638 283.175 222.133C280.872 233.485 276.082 250.716 265.333 270.316C268.002 271.011 271.878 271.664 276.485 271.133C283.943 270.276 289.355 266.846 292.097 264.763C289.903 247.368 290.927 233.73 292.353 224.338C293.705 215.436 295.278 211.026 296.338 201.349C297.837 187.343 296.777 175.665 295.607 167.825C294.766 166.967 293.376 165.702 291.402 164.762C289.72 164.068 288.221 163.823 287.161 163.701Z" fill="#6D6C6C"/>
<path d="M290.598 169.091C295.863 169.091 302.737 169.704 310.525 171.99C320.47 174.93 328.111 179.504 333.194 183.179C334.876 188.242 337.947 199.675 335.095 213.395C333.669 220.337 331.183 225.686 329.062 229.361C328.916 233.526 329.757 236.262 330.598 238.018C331.548 240.1 333.011 241.979 332.426 243.735C332.133 244.633 331.402 245.164 330.854 245.49C330.817 245.613 330.378 246.552 329.391 246.838C328.258 247.124 327.453 246.307 327.38 246.225C327.161 246.43 326.21 247.45 324.711 247.45C323.066 247.491 322.042 246.307 321.859 246.103C321.53 246.266 320.726 246.511 319.739 246.307C318.386 246.021 317.655 244.96 317.435 244.674C316.667 243.98 314.693 241.897 314.51 238.835C314.437 237.691 314.656 236.63 315.241 235.037C315.973 233.077 317.472 229.851 320.653 226.462C321.64 221.317 322.371 214.661 321.969 206.944C321.75 202.983 321.274 199.43 320.689 196.286C315.132 194 308.258 191.835 300.251 190.733C297.033 190.284 293.962 190.08 291.11 190.039C286.247 187.058 283.834 181.3 284.968 176.319C286.138 171.705 289.904 169.5 290.598 169.091Z" fill="white" stroke="#161616" stroke-width="2" stroke-miterlimit="10"/>
<path d="M316.302 235.608C315.681 238.793 315.608 242.06 317.399 244.796C317.619 245.122 318.094 244.796 317.874 244.469C316.156 241.856 316.229 238.793 316.814 235.772C316.887 235.404 316.375 235.2 316.302 235.608Z" fill="#161616"/>
<path d="M319.52 237.038C319.556 240.1 319.995 243.734 321.823 246.143C322.042 246.429 322.445 246.021 322.225 245.694C320.507 243.449 320.105 239.896 320.068 237.038C320.068 236.629 319.52 236.629 319.52 237.038Z" fill="#161616"/>
<path d="M323.394 237.568C323.65 240.631 324.711 244.592 327.16 246.348C327.453 246.552 327.745 246.021 327.453 245.817C325.186 244.183 324.199 240.386 323.943 237.568C323.906 237.16 323.358 237.16 323.394 237.568Z" fill="#161616"/>
<path d="M326.612 237.936C327.051 240.999 328.44 243.694 330.561 245.694C330.817 245.939 331.219 245.531 330.963 245.245C328.879 243.326 327.599 240.713 327.161 237.773C327.088 237.364 326.576 237.528 326.612 237.936Z" fill="#161616"/>
<path opacity="0.17" d="M285.699 175.012C291.915 174.44 302.555 174.44 314.51 179.544C321.53 182.566 326.978 186.445 330.817 189.753C333.048 213.232 329.903 223.236 326.357 227.932C325.589 228.912 322.554 232.668 322.189 238.058C321.896 242.142 323.176 247.123 324.967 247.409C325.699 247.532 326.393 246.838 326.942 246.143C328.002 247.001 328.806 246.96 329.099 246.878C329.355 246.838 329.72 246.715 331.11 245.531C332.207 244.592 332.755 244.102 332.865 243.857C333.56 242.346 331.658 240.304 330.415 237.65C329.611 235.935 328.806 233.322 328.916 229.483C331.439 224.992 336.192 215.028 336.229 201.553C336.265 193.713 334.656 187.343 333.267 183.138C330.013 180.728 327.125 179.095 325.004 177.993C324.455 177.707 324.382 177.625 315.388 173.909C311.622 172.358 310.854 172.031 309.428 171.663C307.454 171.133 307.344 171.296 302.81 170.438C300.47 169.989 298.13 169.663 295.79 169.213C295.169 169.091 292.829 168.683 290.781 169.377C290.489 169.499 289.794 169.703 289.026 170.275C288.844 170.438 288.295 170.847 287.527 171.786C287.052 172.521 286.357 173.542 285.699 175.012Z" fill="#6D6C6C"/>
<path opacity="0.14" d="M332.901 183.709C333.596 190.937 333.669 197.062 333.596 201.635C333.487 207.393 333.413 210.7 332.463 215.192C331.22 221.113 329.062 226.339 328.843 226.87C327.71 229.524 327.527 229.524 326.905 231.403C326.028 234.057 324.273 239.243 326.357 243.244C326.613 243.775 328.075 246.593 330.123 246.348C332.024 246.144 333.011 243.367 333.048 243.244C332.17 241.57 331.22 239.406 330.415 236.874C329.721 234.629 329.282 232.546 329.026 230.79C331.147 226.993 333.742 221.399 335.168 214.13C337.837 200.206 334.62 188.773 332.901 183.709Z" fill="#6D6C6C"/>
<path d="M261.568 136.22C253.524 137.649 251.111 150.307 250.855 151.573C250.307 154.432 248.881 161.904 253.305 167.457C257.656 172.929 264.383 172.317 265.224 172.235C266.906 172.072 270.891 171.296 273.926 167.784C279.264 161.7 278.679 150.92 274.401 144.06C273.889 143.284 268.551 134.995 261.568 136.22Z" fill="#5222D0"/>
<path d="M265.955 152.349C265.772 154.105 266.54 155.003 268.587 159.781C270.196 163.537 271.256 166.682 271.914 168.683C273.231 169.009 276.704 169.703 280.58 167.866C283.212 166.641 284.894 164.763 285.772 163.619C284.602 161.496 283.029 158.352 281.75 154.309C279.739 148.102 280.214 145.693 278.386 144.468C274.73 142.141 266.467 147.082 265.955 152.349Z" fill="white" stroke="#161616" stroke-width="2" stroke-miterlimit="10"/>
<path d="M259.081 107.146C256.229 109.351 255.205 112.659 253.231 119.07C251 126.338 249.538 132.667 249.172 137.159C249.099 137.812 249.465 138.466 250.05 138.711C250.818 139.037 252.097 139.037 252.829 139.16C252.902 141.161 253.231 143.937 254.364 146.959C256.595 152.961 260.543 156.31 262.371 157.616C264.638 157.861 270.342 158.147 275.973 154.309C279.702 151.736 281.64 148.551 282.079 147.776C284.93 142.916 285.186 138.057 285.186 135.975C286.064 135.893 287.453 135.648 288.806 134.627C291.585 132.545 293.669 127.726 291.914 125.072C290.598 123.153 287.307 122.622 284.199 124.337C284.126 122.826 283.87 120.744 283.175 118.335C282.993 117.763 281.713 113.353 279.336 110.372C274.73 104.656 264.858 102.614 259.081 107.146Z" fill="white" stroke="#161616" stroke-width="2" stroke-miterlimit="10"/>
<path d="M268.258 158.842C271.878 158.474 275.132 156.8 277.728 153.942C278.24 153.37 277.436 152.512 276.96 153.084C274.584 155.738 271.622 157.29 268.258 157.657C267.564 157.657 267.527 158.882 268.258 158.842Z" fill="#161616"/>
<path d="M268.807 159.862C272.573 158.678 275.9 156.473 278.606 153.288C279.081 152.717 278.313 151.859 277.838 152.431C275.279 155.452 272.134 157.576 268.551 158.678C267.82 158.882 268.112 160.067 268.807 159.862Z" fill="#161616"/>
<path d="M251.586 124.052C251.074 123.521 247.089 119.152 247.674 112.741C248.332 105.922 253.633 102.655 254.511 102.124C259.191 99.2658 263.798 100.45 264.858 100.777C266.503 99.6333 269.465 97.9183 273.377 97.3875C279.191 96.5708 283.724 98.6942 285.552 99.715C287.966 100.532 291.402 102.124 294.254 105.554C298.24 110.332 297.326 114.292 301.421 122.337C303.029 125.522 302.956 124.501 309.062 133.647C314.547 141.855 317.289 146.02 317.727 149.042C318.642 155.657 315.461 162.517 311.512 166.559C303.834 174.399 290.159 174.726 283.651 166.845C278.277 160.353 279.483 150.389 279.849 147.204C280.507 141.773 282.335 137.649 283.651 135.24C284.273 135.363 285.223 135.526 286.284 135.24C288.295 134.75 290.708 132.912 291.147 129.972C291.183 129.768 291.695 125.767 289.136 124.256C287.527 123.317 285.406 123.725 283.944 125.317C282.116 124.623 279.081 123.276 276.083 120.417C273.085 117.559 271.366 114.497 270.489 112.578C269.172 111.924 266.577 110.985 263.396 111.434C257.143 112.332 253.78 118.008 253.268 118.907C252.719 120.581 252.134 122.296 251.586 124.052Z" fill="#5222D0"/>
<path d="M259.739 127.849C259.63 127.441 259.556 127.073 259.556 126.665C259.556 126.42 259.556 126.175 259.593 125.93C259.63 125.685 259.739 125.563 259.556 125.399C259.3 125.195 259.447 125.603 259.483 125.767C259.483 125.971 259.483 126.175 259.483 126.42C259.483 126.624 259.483 127.563 259.3 127.686C259.447 127.645 259.593 127.645 259.739 127.604C259.849 127.768 259.885 127.768 259.849 127.604C259.849 127.482 259.812 127.4 259.812 127.278C259.776 127.033 259.739 126.828 259.739 126.583C259.739 126.134 259.776 125.685 259.995 125.318C260.361 124.623 259.41 124.011 259.045 124.705C258.752 125.277 258.642 125.93 258.642 126.624C258.642 127.196 258.679 128.053 259.008 128.503C259.3 128.952 259.849 128.911 260.178 128.503C260.58 128.013 260.617 127.073 260.653 126.42C260.69 125.848 260.726 125.073 260.397 124.583C260.105 124.133 259.593 124.052 259.191 124.378C258.277 125.154 258.46 127.155 258.752 128.217C258.862 128.911 259.922 128.584 259.739 127.849Z" fill="#161616"/>
<path d="M257.18 122.622C258.862 121.152 261.385 121.561 262.592 123.48C262.884 123.97 263.615 123.48 263.286 123.031C261.714 120.581 258.679 120.131 256.559 121.969C256.193 122.336 256.778 122.99 257.18 122.622Z" fill="#161616"/>
<path d="M253.89 144.305C256.23 143.488 258.241 142.018 259.813 139.977C260.142 139.527 259.593 138.874 259.228 139.323C257.729 141.283 255.864 142.672 253.67 143.448C253.158 143.57 253.378 144.468 253.89 144.305Z" fill="#161616"/>
<path d="M259.702 131.81C259.702 131.688 259.665 131.728 259.592 131.973C259.519 132.014 259.446 132.014 259.373 132.055C259.373 132.055 259.373 132.055 259.41 132.055C259.336 132.014 259.263 132.014 259.19 131.973L259.154 131.933C259.117 131.851 259.08 131.81 259.044 131.728C259.044 131.769 259.044 131.769 259.044 131.688C259.08 131.606 259.08 131.524 259.117 131.443C259.154 131.402 259.227 131.32 259.263 131.279C259.373 131.279 259.483 131.238 259.592 131.238C259.592 131.238 259.592 131.238 259.556 131.238C259.044 131.116 258.825 131.973 259.336 132.137C259.812 132.259 260.068 131.606 259.739 131.238C259.592 131.075 259.336 131.075 259.154 131.157C258.971 131.279 258.898 131.524 258.898 131.769C258.861 132.423 259.702 132.423 259.702 131.81Z" fill="#161616"/>
<path d="M263.322 128.421C263.322 128.421 263.359 128.421 263.359 128.38C263.432 128.38 263.505 128.38 263.578 128.38C263.761 128.421 263.834 128.666 263.725 128.829C263.688 128.87 263.615 128.952 263.578 128.993C263.542 128.993 263.505 129.034 263.432 129.034C263.359 128.993 263.286 128.993 263.213 128.952L263.176 128.911C263.14 128.829 263.103 128.789 263.066 128.707C263.066 128.584 263.066 128.503 263.14 128.421C263.213 128.38 263.249 128.339 263.322 128.299C263.359 128.299 263.359 128.299 263.396 128.299C263.176 128.258 262.993 128.544 262.993 128.748C262.993 129.034 263.176 129.156 263.396 129.197C263.688 129.238 263.907 128.911 263.907 128.584C263.907 128.217 263.542 127.972 263.249 128.094C262.628 128.38 263.176 129.564 263.725 129.115C263.907 128.993 263.981 128.707 263.871 128.503C263.798 128.38 263.505 128.299 263.322 128.421Z" fill="#161616"/>
<path d="M263.249 132.831C263.395 132.912 263.395 133.157 263.249 133.239C263.03 133.117 262.847 132.994 262.628 132.831C262.628 132.953 262.628 133.076 262.628 133.198C262.81 133.035 262.957 132.912 263.14 132.749C263.176 132.831 263.176 132.872 263.213 132.912C263.176 132.667 263.03 132.463 262.81 132.463C262.591 132.463 262.372 132.667 262.408 132.912C262.445 133.239 262.628 133.566 262.92 133.607C263.176 133.647 263.432 133.484 263.432 133.157C263.432 133.035 263.432 132.912 263.432 132.79C263.432 132.422 263.066 132.218 262.81 132.382C262.408 132.627 262.408 133.28 262.81 133.566C263.322 133.892 263.725 133.117 263.249 132.831Z" fill="#161616"/>
<path opacity="0.15" d="M270.233 112.455C270.854 114.66 271.622 117.845 272.244 121.724C273.56 129.85 274.84 137.2 272.244 144.55C270.013 150.92 265.991 155.167 262.811 157.698C265.37 157.576 268.478 157.168 271.915 156.065C273.56 155.534 275.059 154.922 276.412 154.309C276.924 156.433 277.436 159.291 277.436 162.721C277.436 165.13 277.18 167.253 276.887 168.968C277.582 169.009 278.898 169.009 280.361 168.356C281.677 167.743 282.554 166.886 283.066 166.355C283.834 167.253 285.041 168.397 286.649 169.499C292.463 173.338 298.532 172.317 300.214 171.99C301.677 171.704 309.172 170.153 314.035 162.598C315.388 160.516 318.057 156.31 317.618 150.43C317.216 144.918 314.254 141.324 313.23 140.14C312.682 141.651 311.183 145.081 307.856 147.653C307.234 148.143 302.079 151.982 295.973 150.144C290.306 148.47 285.991 142.508 285.187 135.24C285.735 135.24 286.649 135.199 287.673 134.75C288.185 134.505 289.977 133.566 290.817 131.238C290.964 130.789 291.658 128.829 290.817 126.706C290.671 126.338 289.757 124.052 287.563 123.684C285.589 123.358 284.127 124.868 283.98 125.073C281.823 124.297 278.057 122.623 274.547 118.825C272.427 116.579 271.074 114.252 270.233 112.455Z" fill="#6D6C6C"/>
<path opacity="0.23" d="M287.637 134.628C286.248 134.26 284.858 133.893 283.469 133.484C282.92 134.342 282.153 135.608 281.348 137.241C279.374 141.202 278.972 143.652 277.875 146.388C276.997 148.593 275.425 151.574 272.5 154.677C274.182 154.024 275.864 153.329 277.546 152.676C278.35 154.514 279.666 158.148 279.337 162.844C279.191 165.089 278.716 166.968 278.204 168.356C279.849 167.744 281.494 167.09 283.14 166.478C282.335 165.294 281.238 163.456 280.434 160.965C279.301 157.413 279.374 154.473 279.41 151.819C279.447 150.634 279.593 146.919 280.873 142.304C281.677 139.487 282.628 137.2 283.469 135.526C284.017 135.608 284.858 135.649 285.809 135.404C286.577 135.199 287.198 134.914 287.637 134.628Z" fill="#6D6C6C"/>
<path opacity="0.25" d="M252.719 145.408C252.39 146.347 250.782 151.247 253.048 156.106C254.767 159.822 258.898 163.824 263.14 162.599C265.992 161.782 267.527 159.005 268.039 158.066C269.428 161.782 270.818 165.498 272.207 169.214C271.842 169.54 271.257 170.03 270.525 170.479C265.297 173.828 259.52 171.704 259.081 171.541C257.948 171.092 254.401 169.663 252.098 165.62C249.941 161.782 250.16 157.903 250.343 154.922C250.562 150.634 251.805 147.368 252.719 145.408Z" fill="#6D6C6C"/>
<path d="M67.1656 245.775C79.4872 245.081 91.1506 249.94 102.193 255.494C113.381 261.129 124.276 267.254 136.123 271.01C143.106 273.256 150.272 274.767 157.512 275.706C158.206 275.788 158.206 274.563 157.512 274.481C144.349 272.807 131.552 268.887 119.413 262.966C108.554 257.658 98.0609 251.247 86.6534 247.45C80.3281 245.326 73.7834 244.183 67.1656 244.55C66.4344 244.55 66.4344 245.775 67.1656 245.775Z" fill="#161616"/>
<path d="M138.39 252.799C160.071 263.62 184.422 262.273 207.31 257.781C214.476 256.392 221.606 254.718 228.699 253.003C229.394 252.84 229.101 251.656 228.406 251.819C205.189 257.332 181.168 262.926 157.475 258.067C151.113 256.76 144.861 254.677 138.975 251.737C138.316 251.452 137.768 252.513 138.39 252.799Z" fill="#161616"/>
<path d="M307.747 341.163C323.359 347.941 340.141 342.347 354.913 335.609C362.883 331.975 370.744 327.973 378.971 324.993C387.307 322.012 395.899 319.888 404.601 318.745C414.253 317.479 424.016 317.398 433.705 318.418C434.399 318.5 434.399 317.275 433.705 317.193C416.996 315.397 400.031 317.03 383.87 322.053C367.453 327.198 352.573 337.283 335.9 341.367C326.686 343.613 316.961 343.817 308.039 339.978C307.381 339.693 307.089 340.877 307.747 341.163Z" fill="#161616"/>
<path d="M410.012 299.88C431.036 292.979 453.704 293.592 474.399 301.636C475.057 301.881 475.349 300.697 474.691 300.452C453.814 292.367 430.926 291.754 409.72 298.696C409.061 298.9 409.354 300.084 410.012 299.88Z" fill="#161616"/>
<path d="M278.095 112.332C285.956 110.536 293.817 108.698 301.824 107.922C309.868 107.147 317.765 107.718 325.663 109.392C340.8 112.659 355.534 117.967 370.964 119.682C379.41 120.622 387.929 120.458 396.265 118.58C396.96 118.417 396.667 117.232 395.973 117.396C380.433 120.907 364.602 118.131 349.355 114.252C334.182 110.413 319.338 105.268 303.579 106.493C294.877 107.187 286.322 109.147 277.802 111.107C277.108 111.312 277.4 112.496 278.095 112.332Z" fill="#161616"/>
<path d="M328.076 119.601C352.39 128.502 377.911 136.261 403.76 133.076C410.671 132.218 417.508 130.544 424.089 128.012C424.747 127.767 424.455 126.583 423.796 126.828C399.556 136.261 373.413 132.79 349.136 125.481C342.152 123.398 335.242 120.948 328.405 118.457C327.71 118.171 327.418 119.356 328.076 119.601Z" fill="#161616"/>
</svg>
