<svg width="500" height="360" viewBox="0 0 500 360" fill="none" xmlns="http://www.w3.org/2000/svg">
<g clip-path="url(#clip0_274:4881)">
<path d="M500 360C474.236 356.224 449.459 352.968 425.669 350.234L435.076 334.999C431.905 334.061 417.97 342.746 417.97 342.746L430.319 298.454C414.369 299.992 406.253 345.238 406.253 345.238L388.434 329.845L397.059 347.098C324.246 339.576 261.362 336.621 208.468 336.28L216.52 323.241C213.349 322.303 199.414 330.988 199.414 330.988L211.763 286.696C195.813 288.234 187.697 333.48 187.697 333.48L169.878 318.087L179.013 336.36C134.671 336.898 98.5099 339.267 70.5988 342.029C78.7438 321.695 106.406 302.449 106.406 302.449C85.2819 307.615 74.2004 316.384 68.4095 324.58C67.9668 299.426 70.9447 252.806 93.0686 201.28C93.0686 201.28 49.3965 280.681 54.9598 334.14L55.6248 343.631C18.6098 347.901 0 352.434 0 352.434L500 360Z" fill="#3F3D56"/>
<path d="M265.868 14.4191V335.273C265.864 339.095 264.345 342.76 261.643 345.461C258.942 348.163 255.279 349.681 251.46 349.682H121.303C119.41 349.686 117.536 349.315 115.787 348.592C114.038 347.87 112.449 346.808 111.111 345.47C109.772 344.131 108.711 342.542 107.987 340.792C107.264 339.042 106.893 337.167 106.895 335.273V14.4191C106.894 12.5255 107.267 10.6505 107.991 8.90097C108.715 7.15149 109.776 5.56187 111.114 4.2229C112.452 2.88393 114.041 1.82183 115.789 1.09726C117.537 0.372686 119.41 -0.000163157 121.303 6.76492e-07H140.78V2.49971C140.78 5.64838 142.029 8.66828 144.254 10.8952C146.478 13.1221 149.495 14.3737 152.641 14.3746H218.84C221.373 14.38 223.839 13.5676 225.874 12.058C226.285 11.7587 226.675 11.4312 227.041 11.0779C228.2 9.97064 229.122 8.63933 229.751 7.16476C230.38 5.69019 230.703 4.10309 230.701 2.49971V6.76492e-07H251.46C253.352 -0.000579469 255.226 0.371987 256.974 1.09641C258.723 1.82083 260.311 2.88291 261.649 4.22197C262.987 5.56102 264.049 7.15081 264.773 8.90048C265.496 10.6501 265.869 12.5254 265.868 14.4191V14.4191Z" fill="#3F3D56"/>
<path d="M143.154 56.924C145.066 56.924 146.616 55.3727 146.616 53.4591C146.616 51.5455 145.066 49.9941 143.154 49.9941C141.242 49.9941 139.691 51.5455 139.691 53.4591C139.691 55.3727 141.242 56.924 143.154 56.924Z" fill="#F2F2F2"/>
<path d="M227.04 11.0781C226.674 11.4314 226.284 11.7589 225.873 12.0582C230.113 19.5261 235.858 26.0306 242.743 31.1594C249.628 36.2882 257.502 39.9293 265.868 41.8518V40.3074C257.728 38.3859 250.076 34.7964 243.393 29.7654C236.71 24.7345 231.142 18.3714 227.04 11.0781Z" fill="#6C63FF"/>
<path d="M197.457 14.3745H195.835C201.594 29.0193 211.093 41.895 223.383 51.7149C235.672 61.5347 250.322 67.9547 265.867 70.3334V68.7989C250.726 66.4458 236.458 60.1908 224.464 50.6488C212.47 41.1067 203.163 28.6058 197.457 14.3745V14.3745Z" fill="#6C63FF"/>
<path d="M167.573 14.3745H166.01C179.082 59.7851 218.528 93.5881 265.867 99.0776V97.5679C219.349 92.1032 180.581 58.9436 167.573 14.3745Z" fill="#6C63FF"/>
<path d="M131.778 79.1109H130.877V78.209H130.701V79.1109H129.8V79.2871H130.701V80.189H130.877V79.2871H131.778V79.1109Z" fill="#F2F2F2"/>
<path d="M192.615 34.0664H191.714V33.1646H191.538V34.0664H190.637V34.2426H191.538V35.1445H191.714V34.2426H192.615V34.0664Z" fill="#F2F2F2"/>
<path d="M140.681 114.75H139.779V113.848H139.604V114.75H138.702V114.926H139.604V115.828H139.779V114.926H140.681V114.75Z" fill="#F2F2F2"/>
<path d="M182.228 88.5157H181.327V87.6138H181.152V88.5157H180.25V88.6919H181.152V89.5937H181.327V88.6919H182.228V88.5157Z" fill="#F2F2F2"/>
<path d="M241.582 104.85H240.681V103.948H240.505V104.85H239.604V105.026H240.505V105.928H240.681V105.026H241.582V104.85Z" fill="#F2F2F2"/>
<path d="M231.195 63.854C232.288 63.854 233.174 62.9675 233.174 61.874C233.174 60.7805 232.288 59.894 231.195 59.894C230.103 59.894 229.217 60.7805 229.217 61.874C229.217 62.9675 230.103 63.854 231.195 63.854Z" fill="#FF6584"/>
<path d="M160.317 108.304L159.194 108.477C159.546 110.725 159.822 113.021 160.025 115.293L161.158 115.194C160.955 112.893 160.673 110.576 160.317 108.304Z" fill="#E6E6E6"/>
<path d="M157.245 94.771L156.157 95.1027C156.815 97.2806 157.404 99.513 157.903 101.736L159.016 101.483C158.507 99.2358 157.908 96.9787 157.245 94.771Z" fill="#E6E6E6"/>
<path d="M152.344 81.7925L151.311 82.2677C152.26 84.3417 153.151 86.4702 153.957 88.5986L155.02 88.1977C154.204 86.0445 153.309 83.8863 152.344 81.7925Z" fill="#E6E6E6"/>
<path d="M145.716 69.6255L144.757 70.2343C145.979 72.1549 147.151 74.1448 148.239 76.1396L149.238 75.5951C148.14 73.5756 146.953 71.5658 145.716 69.6255Z" fill="#E6E6E6"/>
<path d="M137.476 58.4736L136.61 59.2112C138.084 60.9436 139.519 62.7553 140.874 64.5868L141.784 63.9087C140.419 62.0573 138.97 60.2259 137.476 58.4736Z" fill="#E6E6E6"/>
<path d="M127.791 48.5439L127.034 49.3904C128.736 50.91 130.402 52.5088 131.99 54.1374L132.806 53.3404C131.199 51.6921 129.512 50.0784 127.791 48.5439Z" fill="#E6E6E6"/>
<path d="M116.851 40.02L116.213 40.9605C118.102 42.2326 119.972 43.5889 121.767 44.9897L122.47 44.0938C120.65 42.6781 118.76 41.307 116.851 40.02Z" fill="#E6E6E6"/>
<path d="M106.895 34.1001V35.3871C108.077 36.0058 109.249 36.6543 110.396 37.3176L110.965 36.3325C109.63 35.5603 108.273 34.8162 106.895 34.1001Z" fill="#E6E6E6"/>
<path d="M160.061 215.224C160.245 214.117 160.414 212.987 160.562 211.865L161.69 212.015C161.54 213.149 161.369 214.291 161.182 215.411L160.061 215.224Z" fill="#E6E6E6"/>
<path d="M156.891 228.578L157.977 228.917C158.659 226.717 159.277 224.464 159.811 222.219L158.704 221.957C158.174 224.178 157.568 226.403 156.891 228.578Z" fill="#E6E6E6"/>
<path d="M151.924 241.365L152.956 241.849C153.937 239.766 154.855 237.62 155.688 235.471L154.627 235.057C153.804 237.182 152.895 239.305 151.924 241.365Z" fill="#E6E6E6"/>
<path d="M145.24 253.36L146.194 253.98C147.452 252.05 148.659 250.049 149.782 248.035L148.79 247.479C147.681 249.47 146.484 251.448 145.24 253.36Z" fill="#E6E6E6"/>
<path d="M136.973 264.319L137.835 265.066C139.348 263.32 140.815 261.503 142.205 259.666L141.294 258.984C139.923 260.8 138.471 262.595 136.973 264.319Z" fill="#E6E6E6"/>
<path d="M127.29 274.043L128.039 274.899C129.778 273.38 131.479 271.778 133.104 270.151L132.3 269.344C130.693 270.955 129.007 272.535 127.29 274.043Z" fill="#E6E6E6"/>
<path d="M116.383 282.354L117.011 283.306C118.931 282.037 120.839 280.685 122.668 279.291L121.981 278.382C120.169 279.764 118.285 281.102 116.383 282.354Z" fill="#E6E6E6"/>
<path d="M111.094 286.922C109.719 287.699 108.314 288.452 106.895 289.164V287.887C108.121 287.264 109.338 286.605 110.53 285.937L111.094 286.922Z" fill="#E6E6E6"/>
<path d="M160.394 122.316L161.53 122.295C161.551 123.444 161.553 124.599 161.535 125.728L160.398 125.71C160.416 124.594 160.414 123.452 160.394 122.316Z" fill="#E6E6E6"/>
<path d="M111.89 149.306H228.228C236.885 149.306 245.189 152.748 251.311 158.874C257.433 165.001 260.872 173.311 260.872 181.975V186.3H144.534C135.876 186.3 127.573 182.858 121.451 176.731C115.329 170.604 111.89 162.295 111.89 153.63V149.306V149.306Z" fill="white"/>
<path d="M189.098 349.228C188.985 349.042 186.308 344.57 185.38 335.283C184.529 326.763 185.077 312.401 192.519 292.368C206.618 254.416 189.27 223.795 189.092 223.49L189.948 222.993C189.993 223.071 194.47 230.878 197.114 243.31C200.609 259.792 199.336 276.929 193.446 292.713C179.371 330.6 189.835 348.535 189.943 348.712L189.098 349.228Z" fill="#F2F2F2"/>
<path d="M183.585 221.261C187.136 221.261 190.015 218.38 190.015 214.826C190.015 211.273 187.136 208.392 183.585 208.392C180.034 208.392 177.155 211.273 177.155 214.826C177.155 218.38 180.034 221.261 183.585 221.261Z" fill="#6C63FF"/>
<path d="M203.865 245.021C207.416 245.021 210.295 242.14 210.295 238.586C210.295 235.032 207.416 232.151 203.865 232.151C200.313 232.151 197.435 235.032 197.435 238.586C197.435 242.14 200.313 245.021 203.865 245.021Z" fill="#F2F2F2"/>
<path d="M190.015 260.861C193.566 260.861 196.445 257.98 196.445 254.426C196.445 250.872 193.566 247.991 190.015 247.991C186.464 247.991 183.585 250.872 183.585 254.426C183.585 257.98 186.464 260.861 190.015 260.861Z" fill="#6C63FF"/>
<path d="M206.832 274.226C210.384 274.226 213.262 271.345 213.262 267.791C213.262 264.237 210.384 261.356 206.832 261.356C203.281 261.356 200.402 264.237 200.402 267.791C200.402 271.345 203.281 274.226 206.832 274.226Z" fill="#6C63FF"/>
<path d="M185.069 295.015C188.62 295.015 191.499 292.134 191.499 288.58C191.499 285.027 188.62 282.146 185.069 282.146C181.517 282.146 178.639 285.027 178.639 288.58C178.639 292.134 181.517 295.015 185.069 295.015Z" fill="#F2F2F2"/>
<path d="M192.983 349.465C192.983 349.465 186.553 333.625 205.843 321.745L192.983 349.465Z" fill="#F2F2F2"/>
<path d="M185.075 349.177C185.075 349.177 182.148 332.333 159.499 332.477L185.075 349.177Z" fill="#F2F2F2"/>
<path opacity="0.2" d="M159.476 207.402C181.33 207.402 199.045 189.673 199.045 167.803C199.045 145.932 181.33 128.203 159.476 128.203C137.623 128.203 119.907 145.932 119.907 167.803C119.907 189.673 137.623 207.402 159.476 207.402Z" fill="#6C63FF"/>
<path opacity="0.2" d="M159.476 195.689C174.866 195.689 187.341 183.204 187.341 167.802C187.341 152.401 174.866 139.916 159.476 139.916C144.086 139.916 131.61 152.401 131.61 167.802C131.61 183.204 144.086 195.689 159.476 195.689Z" fill="#6C63FF"/>
<path d="M159.476 186.208C169.633 186.208 177.867 177.967 177.867 167.802C177.867 157.637 169.633 149.397 159.476 149.397C149.319 149.397 141.085 157.637 141.085 167.802C141.085 177.967 149.319 186.208 159.476 186.208Z" fill="#6C63FF"/>
<path d="M162.82 163.833C162.82 163.268 162.677 162.712 162.405 162.218C162.133 161.723 161.74 161.305 161.263 161.003C160.786 160.702 160.24 160.525 159.677 160.491C159.114 160.457 158.551 160.567 158.041 160.809C157.531 161.051 157.091 161.419 156.762 161.877C156.432 162.335 156.224 162.87 156.156 163.431C156.088 163.991 156.164 164.56 156.375 165.084C156.586 165.607 156.926 166.069 157.363 166.426L156.132 175.053H162.82L161.588 166.426C161.973 166.113 162.284 165.717 162.497 165.269C162.71 164.82 162.82 164.329 162.82 163.833V163.833Z" fill="white"/>
<path d="M344.303 26.3833C344.303 26.3833 333.272 16.486 318.438 35.1386C303.603 53.7912 280.4 62.9272 275.075 70.1598C275.075 70.1598 297.137 61.0238 304.744 57.2172C312.352 53.4105 311.971 54.1719 311.971 54.1719C311.971 54.1719 301.701 61.4045 299.799 68.6371C297.898 75.8698 299.419 81.9604 295.996 89.1931C292.572 96.4257 361.42 94.1418 361.42 94.1418C361.42 94.1418 368.267 82.3411 366.365 70.1598C364.463 57.9785 365.604 27.9059 344.303 26.3833Z" fill="#2F2E41"/>
<path d="M323.44 57.519C323.44 57.519 325.838 74.3224 315.558 78.0946C305.278 81.8668 309.048 87.0107 309.048 87.0107L324.468 94.5551L340.915 89.4112L346.398 81.1809C346.398 81.1809 337.489 79.1234 339.887 72.9507C342.286 66.778 342.971 64.7205 342.971 64.7205L323.44 57.519Z" fill="#FFB9B9"/>
<path opacity="0.1" d="M323.44 57.519C323.44 57.519 325.838 74.3224 315.558 78.0946C305.278 81.8668 309.048 87.0107 309.048 87.0107L324.468 94.5551L340.915 89.4112L346.398 81.1809C346.398 81.1809 337.489 79.1234 339.887 72.9507C342.286 66.778 342.971 64.7205 342.971 64.7205L323.44 57.519Z" fill="black"/>
<path d="M366.616 105.529C366.616 105.529 364.217 137.078 364.902 138.45C365.588 139.821 364.902 187.488 364.902 187.488C364.902 187.488 369.7 213.208 363.532 214.579C357.364 215.951 358.734 185.774 358.734 185.774L352.566 145.994L353.252 106.558L366.616 105.529Z" fill="#FFB9B9"/>
<path opacity="0.1" d="M366.616 105.529C366.616 105.529 364.217 137.078 364.902 138.45C365.588 139.821 364.902 187.488 364.902 187.488C364.902 187.488 369.7 213.208 363.532 214.579C357.364 215.951 358.734 185.774 358.734 185.774L352.566 145.994L353.252 106.558L366.616 105.529Z" fill="black"/>
<path d="M299.796 200.52C299.796 200.52 288.488 243.385 288.831 264.304C289.174 285.222 293.628 314.371 293.628 314.371C293.628 314.371 294.313 327.059 293.286 328.431C292.258 329.803 298.425 335.632 298.425 335.632L304.936 331.86L307.335 329.117V326.716C307.335 326.716 303.565 315.057 306.649 305.798C309.733 296.539 311.447 273.22 308.363 266.018L329.608 202.92L299.796 200.52Z" fill="#FFB9B9"/>
<path d="M299.111 330.146C299.111 330.146 294.999 325.002 292.257 326.716C289.516 328.431 285.062 340.09 285.062 340.09C285.062 340.09 269.642 354.836 280.607 355.522C291.572 356.208 296.369 352.436 297.74 349.692C299.111 346.949 311.789 339.747 311.789 339.747C311.789 339.747 310.419 326.716 308.363 326.373C306.307 326.03 303.223 331.517 303.223 331.517L299.111 330.146Z" fill="#2F2E41"/>
<path d="M337.146 203.263V245.786C337.186 250.945 337.529 256.098 338.174 261.217C339.202 268.762 332.349 325.002 332.349 325.002L333.034 334.947L341.601 334.261L342.629 325.688L354.964 287.966C354.964 287.966 359.076 264.99 357.02 256.416C354.964 247.843 367.643 192.975 367.643 192.975L337.146 203.263Z" fill="#FFB9B9"/>
<path d="M330.293 332.546L332.831 331.994C332.831 331.994 334.747 327.745 337.146 328.774C338.834 329.553 340.433 330.512 341.916 331.634L342.971 333.575C342.971 333.575 345.37 338.719 348.454 342.148C351.538 345.577 354.964 353.122 349.824 353.807C344.685 354.493 337.831 354.836 335.775 353.122C333.719 351.407 335.09 348.664 333.034 347.978C330.978 347.292 329.265 345.234 329.607 344.548C329.95 343.863 330.293 332.546 330.293 332.546Z" fill="#2F2E41"/>
<path d="M337.146 69.3309C345.557 69.3309 352.375 62.5074 352.375 54.09C352.375 45.6727 345.557 38.8491 337.146 38.8491C328.735 38.8491 321.917 45.6727 321.917 54.09C321.917 62.5074 328.735 69.3309 337.146 69.3309Z" fill="#FFB9B9"/>
<path d="M308.362 80.8383L312.889 79.2568C312.889 79.2568 311.104 82.21 320.698 83.9246C330.293 85.6393 340.229 86.2463 344.684 80.6274C344.684 80.6274 346.398 79.8095 348.797 82.21C351.195 84.6105 352.566 83.9246 352.566 83.9246L350.853 92.8407L347.426 109.301L342.971 121.647L330.293 118.903L316.586 108.958L311.446 95.5841V83.2387L308.362 80.8383Z" fill="#6C63FF"/>
<path d="M350.167 85.639L353.593 83.2385C353.593 83.2385 365.244 85.296 365.929 90.7829L357.02 107.929C358.837 112.7 358.714 117.994 356.677 122.675C353.251 130.562 353.593 132.277 353.593 132.277L351.195 142.565L307.676 145.994C307.676 145.994 305.963 141.879 305.278 141.193C304.592 140.507 304.592 138.107 305.278 138.107C305.963 138.107 305.278 137.078 304.592 136.049C303.907 135.02 303.564 134.677 304.592 133.306C305.62 131.934 302.879 119.589 302.879 119.589V106.215L291.229 90.7829C291.229 90.7829 295.34 84.6102 297.396 83.9243C299.452 83.2385 309.233 80.5337 309.233 80.5337L311.446 83.7947L314.53 108.615L318.984 123.704L337.74 120.514L345.027 108.272L349.824 93.8692L350.167 85.639Z" fill="#6C63FF"/>
<path d="M363.189 88.7256L365.93 90.7831C365.93 90.7831 368.328 109.987 367.643 111.359C366.958 112.73 354.965 114.102 354.622 113.416C354.279 112.73 363.189 88.7256 363.189 88.7256Z" fill="#6C63FF"/>
<path d="M306.648 79.1237L310.075 101.757C310.075 101.757 306.991 135.364 307.676 142.222L308.362 144.28C308.362 144.28 306.991 143.594 306.648 144.966C306.306 146.337 306.648 150.795 306.648 150.795C306.648 150.795 304.592 152.853 303.907 164.169C303.222 175.486 294.998 202.577 298.082 203.606C301.166 204.635 319.67 209.779 329.607 208.75C339.544 207.721 375.181 195.719 374.838 192.632C374.496 189.546 357.363 145.994 357.363 145.994C357.363 145.994 354.279 140.85 354.279 140.165C354.279 139.479 358.391 136.735 357.363 133.992C356.335 131.248 350.852 102.443 350.852 102.443L354.621 81.8671L349.481 80.4954L345.712 100.385C345.712 100.385 330.978 107.587 315.558 101.071L312.131 77.752L306.648 79.1237Z" fill="#2F2E41"/>
<path d="M323.136 43.152C323.136 43.152 348.493 60.6412 355.346 52.7539C362.199 44.8666 343.353 38.0081 343.353 38.0081L327.59 36.2935L323.136 43.152Z" fill="#2F2E41"/>
<path d="M283.737 229.202C286.347 231.146 289.576 232.071 292.819 231.804C296.061 231.536 299.095 230.094 301.352 227.748C303.608 225.402 304.932 222.313 305.075 219.06C305.218 215.807 304.171 212.613 302.129 210.077C300.088 207.542 297.193 205.838 293.986 205.286C290.78 204.734 287.482 205.371 284.711 207.078C281.941 208.785 279.887 211.445 278.936 214.559C277.984 217.673 278.201 221.027 279.544 223.993L244.571 253.134L239.915 247.603L237.822 249.004L235.494 246.238L237.407 244.625L235.079 241.86L232.103 244.369L233.536 246.071L230.347 248.759L228.915 247.058L224.238 251.001L226.387 253.553L228.088 252.12L230.416 254.885L228.291 256.677L232.589 261.783L227.487 266.084L232.681 272.253L283.737 229.202ZM292.469 209.654C294.212 209.803 295.872 210.466 297.238 211.559C298.605 212.652 299.617 214.126 300.146 215.794C300.675 217.463 300.698 219.251 300.212 220.932C299.726 222.614 298.753 224.114 297.415 225.242C296.077 226.37 294.435 227.075 292.697 227.27C290.959 227.464 289.202 227.138 287.648 226.332C286.095 225.527 284.815 224.279 283.971 222.746C283.126 221.213 282.755 219.464 282.904 217.719C283.104 215.38 284.224 213.217 286.017 211.704C287.811 210.192 290.132 209.454 292.469 209.654V209.654Z" fill="#6C63FF"/>
<path d="M288.831 109.644C288.831 109.644 291.229 141.193 290.544 142.565C289.859 143.937 290.544 191.603 290.544 191.603C290.544 191.603 285.747 217.323 291.915 218.695C298.083 220.066 296.712 189.889 296.712 189.889L302.88 150.109L302.195 110.673L288.831 109.644Z" fill="#FFB9B9"/>
<path d="M293.971 89.7544L291.229 90.7832C291.229 90.7832 286.089 112.388 287.46 112.388C288.831 112.388 305.279 114.445 305.279 113.759C305.279 113.073 302.195 96.27 302.195 96.27L293.971 89.7544Z" fill="#6C63FF"/>
</g>
<defs>
<clipPath id="clip0_274:4881">
<rect width="500" height="360" fill="white"/>
</clipPath>
</defs>
</svg>
