<svg width="430" height="398" viewBox="0 0 430 398" fill="none" xmlns="http://www.w3.org/2000/svg">
<g clip-path="url(#clip0_273:4768)">
<path d="M197.445 218.975C197.368 218.975 197.32 218.973 197.303 218.972L188.109 218.973V217.611H197.336C197.55 217.618 201.909 217.742 205.925 212.845C211.91 205.548 216.825 187.481 206.251 142.858C192.034 82.8566 203.892 29.8483 209.65 9.84301C209.933 8.85327 209.984 7.81079 209.798 6.79795C209.612 5.78511 209.194 4.82966 208.577 4.00708C207.96 3.18451 207.161 2.51734 206.244 2.05832C205.326 1.59929 204.315 1.36098 203.29 1.3622H65.9801C64.9362 1.36361 63.9073 1.61233 62.977 2.08818C62.0466 2.56402 61.241 3.25359 60.6256 4.10091C58.1864 7.47248 54.839 13.9496 52.7443 25.6613L51.4102 25.4205C53.5502 13.4544 57.0065 6.78672 59.5291 3.30008C60.2704 2.27911 61.241 1.44819 62.3618 0.874803C63.4827 0.30141 64.7223 0.00169649 65.9801 3.70656e-06H203.29C204.525 -0.00119062 205.743 0.28626 206.849 0.839644C207.955 1.39303 208.917 2.19719 209.66 3.18858C210.404 4.17998 210.907 5.33145 211.131 6.55203C211.355 7.7726 211.294 9.02884 210.952 10.2215C205.224 30.123 193.427 82.8563 207.57 142.543C218.292 187.794 213.138 206.251 206.926 213.767C202.828 218.724 198.314 218.975 197.445 218.975Z" fill="#E6E6E6"/>
<path d="M172.705 243.835C172.628 243.835 172.58 243.833 172.563 243.832L163.369 243.833V242.471H172.596C172.811 242.478 177.169 242.602 181.185 237.706C187.17 230.408 192.084 212.342 181.511 167.719C167.294 107.717 179.152 54.7087 184.91 34.7034C185.193 33.7136 185.244 32.6711 185.058 31.6583C184.872 30.6455 184.454 29.69 183.837 28.8674C183.22 28.0449 182.421 27.3777 181.503 26.9187C180.586 26.4596 179.575 26.2213 178.55 26.2226H41.24C40.196 26.224 39.1672 26.4727 38.2368 26.9485C37.3065 27.4244 36.5009 28.1139 35.8854 28.9613C33.4462 32.3328 30.0988 38.8099 28.0042 50.5216L26.6699 50.2809C28.81 38.3147 32.2663 31.6471 34.7889 28.1604C35.5303 27.1395 36.5008 26.3085 37.6217 25.7352C38.7426 25.1618 39.9822 24.862 41.24 24.8604H178.55C179.785 24.8592 181.003 25.1466 182.109 25.7C183.215 26.2534 184.177 27.0575 184.92 28.0489C185.663 29.0403 186.167 30.1918 186.391 31.4124C186.615 32.633 186.554 33.8892 186.212 35.0818C180.484 54.9834 168.687 107.717 182.83 167.404C193.552 212.654 188.397 231.112 182.186 238.627C178.088 243.584 173.574 243.835 172.705 243.835Z" fill="#CCCCCC"/>
<path d="M147.964 268.695C147.887 268.695 147.839 268.693 147.822 268.692L12.6288 268.693C11.3272 268.695 10.0451 268.376 8.89459 267.764C7.7441 267.152 6.76033 266.267 6.02939 265.184C5.29845 264.102 4.8426 262.857 4.70174 261.556C4.56088 260.256 4.73929 258.941 5.22138 257.726C10.1266 245.411 16.7313 215.866 5.85278 156.352C-6.99285 86.0759 4.5074 60.678 10.048 53.0203C10.7894 51.9993 11.7599 51.1684 12.8809 50.595C14.0018 50.0216 15.2414 49.7219 16.4992 49.7202H153.809C155.044 49.719 156.262 50.0065 157.368 50.5599C158.474 51.1132 159.436 51.9174 160.179 52.9088C160.923 53.9002 161.426 55.0517 161.65 56.2722C161.874 57.4928 161.813 58.7491 161.471 59.9417C155.743 79.8432 143.946 132.576 158.089 192.263C168.811 237.514 163.657 255.971 157.445 263.487C153.347 268.444 148.833 268.695 147.964 268.695ZM16.4992 51.0824C15.4553 51.0838 14.4263 51.3325 13.496 51.8084C12.5656 52.2842 11.76 52.9738 11.1445 53.8211C5.70666 61.3368 -5.56473 86.3486 7.18606 156.106C17.5783 212.959 12.5381 243.023 6.47986 258.232C6.07156 259.236 5.9183 260.326 6.03392 261.403C6.14954 262.481 6.53039 263.513 7.14212 264.406C7.74868 265.307 8.56613 266.046 9.52274 266.556C10.4794 267.065 11.5459 267.332 12.6288 267.331H147.855C148.069 267.341 152.428 267.463 156.444 262.566C162.429 255.268 167.344 237.202 156.77 192.579C142.553 132.577 154.411 79.5685 160.169 59.5632C160.452 58.5735 160.503 57.531 160.317 56.5182C160.131 55.5053 159.713 54.5499 159.096 53.7273C158.479 52.9047 157.68 52.2376 156.763 51.7785C155.845 51.3195 154.834 51.0812 153.809 51.0824H16.4992Z" fill="#3F3D56"/>
<path d="M130.454 111.019H22.6804C21.2422 111.019 19.863 110.445 18.846 109.423C17.8291 108.401 17.2578 107.015 17.2578 105.57C17.2578 104.125 17.8291 102.739 18.846 101.717C19.863 100.696 21.2422 100.122 22.6804 100.122H130.454C131.892 100.122 133.271 100.696 134.288 101.717C135.305 102.739 135.876 104.125 135.876 105.57C135.876 107.015 135.305 108.401 134.288 109.423C133.271 110.445 131.892 111.019 130.454 111.019Z" fill="#6C63FF"/>
<path d="M130.454 134.176H22.6804C21.2422 134.176 19.863 133.602 18.846 132.581C17.8291 131.559 17.2578 130.173 17.2578 128.728C17.2578 127.282 17.8291 125.897 18.846 124.875C19.863 123.853 21.2422 123.279 22.6804 123.279H130.454C131.892 123.279 133.271 123.853 134.288 124.875C135.305 125.897 135.876 127.282 135.876 128.728C135.876 130.173 135.305 131.559 134.288 132.581C133.271 133.602 131.892 134.176 130.454 134.176Z" fill="#CCCCCC"/>
<path d="M130.454 157.334H22.6804C21.2422 157.334 19.863 156.76 18.846 155.738C17.8291 154.716 17.2578 153.33 17.2578 151.885C17.2578 150.44 17.8291 149.054 18.846 148.032C19.863 147.01 21.2422 146.436 22.6804 146.436H130.454C131.892 146.436 133.271 147.01 134.288 148.032C135.305 149.054 135.876 150.44 135.876 151.885C135.876 153.33 135.305 154.716 134.288 155.738C133.271 156.76 131.892 157.334 130.454 157.334Z" fill="#CCCCCC"/>
<path d="M138.588 180.491H30.8151C29.377 180.491 27.9977 179.917 26.9808 178.895C25.9639 177.874 25.3926 176.488 25.3926 175.043C25.3926 173.597 25.9639 172.212 26.9808 171.19C27.9977 170.168 29.377 169.594 30.8151 169.594H138.588C140.027 169.594 141.406 170.168 142.423 171.19C143.44 172.212 144.011 173.597 144.011 175.043C144.011 176.488 143.44 177.874 142.423 178.895C141.406 179.917 140.027 180.491 138.588 180.491Z" fill="#CCCCCC"/>
<path d="M138.588 203.649H30.8151C29.377 203.649 27.9977 203.075 26.9808 202.053C25.9639 201.031 25.3926 199.645 25.3926 198.2C25.3926 196.755 25.9639 195.369 26.9808 194.347C27.9977 193.325 29.377 192.751 30.8151 192.751H138.588C140.027 192.751 141.406 193.325 142.423 194.347C143.44 195.369 144.011 196.755 144.011 198.2C144.011 199.645 143.44 201.031 142.423 202.053C141.406 203.075 140.027 203.649 138.588 203.649Z" fill="#CCCCCC"/>
<path d="M73.5168 87.8614H22.6804C21.2422 87.8614 19.863 87.2874 18.846 86.2655C17.8291 85.2437 17.2578 83.8578 17.2578 82.4127C17.2578 80.9675 17.8291 79.5816 18.846 78.5598C19.863 77.5379 21.2422 76.9639 22.6804 76.9639H73.5168C74.955 76.9639 76.3342 77.5379 77.3511 78.5598C78.3681 79.5816 78.9394 80.9675 78.9394 82.4127C78.9394 83.8578 78.3681 85.2437 77.3511 86.2655C76.3342 87.2874 74.955 87.8614 73.5168 87.8614Z" fill="#6C63FF"/>
<path d="M66.953 240.987C68.047 236.332 73.1875 234.806 77.3902 234.977C80.0455 235.157 82.6794 235.576 85.2603 236.228C87.9608 236.835 90.635 237.554 93.2958 238.317C98.1751 239.715 103.004 241.406 107.964 242.499C112.093 243.409 116.58 243.943 120.697 242.686C124.655 241.479 128.013 238.514 129.09 234.415C130.105 230.552 128.711 226.328 124.986 224.563C121.589 222.953 117.298 223.772 115.614 227.412C113.716 231.517 115.613 235.994 118.619 238.964C120.327 240.576 122.199 242.004 124.203 243.226C126.236 244.618 128.5 245.637 130.888 246.235C134.81 247.076 139.481 245.836 141.503 242.072C141.952 241.22 142.223 240.284 142.297 239.322C142.417 238.013 140.383 238.022 140.264 239.322C139.921 243.071 135.552 244.826 132.285 244.415C130.08 244.048 127.974 243.227 126.1 242.003C124.291 240.943 122.577 239.728 120.977 238.37C118.206 235.961 115.609 231.996 117.47 228.236C118.985 225.175 122.935 225.205 125.338 227.18C128.247 229.571 127.729 233.911 125.809 236.75C123.685 239.894 119.833 241.212 116.202 241.354C112.257 241.509 108.344 240.599 104.573 239.523C99.8875 238.186 95.2487 236.69 90.5407 235.431C87.8678 234.717 85.1744 234.072 82.4534 233.57C79.8805 233 77.2379 232.816 74.6114 233.024C70.3683 233.517 66.037 235.999 64.9922 240.444C64.6916 241.723 66.6519 242.269 66.953 240.987L66.953 240.987Z" fill="#3F3D56"/>
<path d="M274.704 356.515C274.821 369.926 275.798 383.316 277.631 396.6C277.695 397.067 277.764 397.534 277.829 398L402.82 397.298C403.187 396.835 403.549 396.366 403.899 395.892C405.065 394.321 406.159 392.706 407.163 391.036C411.989 382.987 414.198 373.563 411.984 367.062L411.945 366.961C411.467 365.537 410.714 364.222 409.729 363.092C404.681 357.382 394.475 358.334 385.214 362.943C393.521 353.806 400.135 342.276 400.638 331.985C401.131 321.946 395.907 314.775 390.241 308.681C390.055 308.48 389.869 308.284 389.684 308.088C389.593 307.987 389.498 307.892 389.408 307.792C384.987 303.147 379.834 298.569 372.375 299.123C364.194 299.732 355.124 306.617 348.764 314.641C342.404 322.659 338.178 331.767 333.894 340.657C329.605 349.54 324.965 358.651 318.082 366.245C327.404 354.396 334.92 340.915 337.697 327.804C340.473 314.693 338.03 302.1 329.722 295.926C327.199 294.109 324.281 292.925 321.21 292.474C320.851 292.415 320.487 292.366 320.117 292.323C312.426 291.444 303.243 294.117 295.43 300.506C286.826 307.541 280.86 317.97 277.892 327.87C274.924 337.77 274.608 347.301 274.704 356.515Z" fill="#6C63FF"/>
<path d="M356.48 397.558L358.871 397.545C359.629 397.068 360.392 396.597 361.158 396.131C361.632 395.831 362.112 395.541 362.592 395.246C370.52 390.38 378.497 385.714 386.524 381.245C394.544 376.773 402.604 372.507 410.705 368.447C410.919 368.353 411.094 368.187 411.2 367.976C411.305 367.766 411.333 367.525 411.28 367.296C411.272 367.266 411.258 367.238 411.241 367.212C411.128 366.999 410.875 366.91 410.506 367.092C409.513 367.593 408.514 368.094 407.52 368.606C399.398 372.735 391.31 377.071 383.257 381.612C375.21 386.152 367.209 390.892 359.253 395.833C359.086 395.935 358.918 396.043 358.751 396.145C357.992 396.616 357.239 397.087 356.48 397.558Z" fill="white"/>
<path d="M325.664 397.731L327.142 397.723C327.475 397.254 327.803 396.786 328.136 396.317C335.968 385.281 343.798 374.246 351.627 363.21C364.447 345.143 377.263 327.076 390.076 309.009C390.152 308.911 390.208 308.8 390.242 308.681C390.352 308.281 390.059 308.047 389.684 308.088C389.526 308.111 389.375 308.167 389.24 308.253C389.106 308.339 388.991 308.453 388.903 308.588C381.716 318.72 374.53 328.848 367.346 338.972C354.593 356.949 341.841 374.924 329.091 392.897C328.28 394.038 327.469 395.184 326.658 396.325C326.325 396.794 325.992 397.263 325.664 397.731Z" fill="white"/>
<path d="M292.739 389.107C292.814 391.61 292.979 394.073 293.194 396.513C293.236 396.98 293.278 397.446 293.32 397.913L294.87 397.904C294.823 397.438 294.775 396.971 294.734 396.504C294.406 392.979 294.174 389.414 294.142 385.752C294.101 375.6 295.085 365.469 297.081 355.517C299.202 344.801 302.247 334.29 306.182 324.105C310.313 313.363 315.293 302.97 321.074 293.026C321.183 292.864 321.231 292.669 321.211 292.474C321.147 292.03 320.559 291.899 320.119 292.323C320.032 292.406 319.957 292.501 319.896 292.605C319.181 293.841 318.479 295.081 317.79 296.324C312.221 306.323 307.455 316.752 303.536 327.512C299.804 337.731 296.965 348.257 295.051 358.971C293.259 368.911 292.484 379.009 292.739 389.107V389.107Z" fill="white"/>
<path d="M141.667 241.472C141.41 241.256 141.222 240.97 141.127 240.647C141.031 240.325 141.033 239.982 141.132 239.661C141.231 239.339 141.422 239.055 141.681 238.843C141.941 238.63 142.257 238.5 142.59 238.468C146.287 238.109 150.018 238.494 153.566 239.599L189.704 250.813C190.172 250.958 190.606 251.195 190.983 251.509C191.36 251.823 191.672 252.208 191.9 252.643C192.129 253.078 192.27 253.554 192.316 254.044C192.361 254.534 192.31 255.028 192.166 255.498C192.021 255.968 191.786 256.405 191.474 256.784C191.161 257.162 190.778 257.475 190.345 257.705C189.912 257.935 189.438 258.077 188.951 258.122C188.463 258.168 187.972 258.117 187.504 257.972L151.366 246.757C147.816 245.659 144.519 243.863 141.667 241.472V241.472Z" fill="#3F3D56"/>
<path d="M289.802 288.059C288.821 287.645 287.941 287.02 287.226 286.228C286.511 285.436 285.977 284.496 285.662 283.474C285.348 282.452 285.26 281.373 285.405 280.313C285.55 279.254 285.925 278.239 286.503 277.34L280.309 244.79L296.096 243.553L297.049 275.392C298.487 276.467 299.482 278.035 299.846 279.799C300.21 281.562 299.918 283.398 299.025 284.96C298.132 286.521 296.699 287.699 295 288.27C293.3 288.841 291.451 288.766 289.802 288.059Z" fill="#FFB8B8"/>
<path d="M279.334 271.259L263.255 196.009C262.594 192.919 263.183 189.691 264.891 187.036C266.599 184.382 269.286 182.518 272.362 181.854C275.438 181.19 278.65 181.782 281.292 183.498C283.934 185.214 285.789 187.915 286.449 191.006L302.529 266.254C302.698 267.049 302.546 267.879 302.107 268.561C301.668 269.243 300.978 269.723 300.188 269.895L282.957 273.612C282.565 273.697 282.161 273.703 281.767 273.631C281.373 273.558 280.997 273.408 280.66 273.19C280.324 272.971 280.034 272.688 279.806 272.357C279.579 272.026 279.418 271.652 279.334 271.259V271.259Z" fill="#6C63FF"/>
<path d="M252.941 389.632H244.631L240.678 357.424L252.943 357.425L252.941 389.632Z" fill="#FFB8B8"/>
<path d="M238.696 387.246H254.722V397.386H228.605C228.605 396.054 228.866 394.736 229.374 393.505C229.881 392.275 230.624 391.157 231.561 390.216C232.498 389.274 233.61 388.527 234.835 388.018C236.059 387.508 237.371 387.246 238.696 387.246V387.246Z" fill="#2F2E41"/>
<path d="M280.732 388.951H272.422L268.469 356.743L280.734 356.744L280.732 388.951Z" fill="#FFB8B8"/>
<path d="M266.487 386.565H282.513V396.704H256.396C256.396 395.373 256.657 394.054 257.165 392.824C257.672 391.594 258.415 390.476 259.352 389.535C260.289 388.593 261.401 387.846 262.626 387.337C263.85 386.827 265.162 386.565 266.487 386.565V386.565Z" fill="#2F2E41"/>
<path d="M242.985 383.624C242.674 383.367 242.417 383.05 242.229 382.692C242.04 382.334 241.925 381.942 241.89 381.538L232.229 274.756C232.192 274.342 232.239 273.924 232.367 273.528C232.496 273.132 232.703 272.767 232.977 272.455C233.25 272.142 233.584 271.889 233.958 271.71C234.332 271.532 234.739 271.431 235.153 271.416L283.603 269.59C284.022 269.574 284.44 269.646 284.831 269.8C285.222 269.954 285.576 270.187 285.873 270.485C286.17 270.783 286.402 271.139 286.556 271.532C286.71 271.924 286.781 272.344 286.766 272.765L282.893 379.137C282.864 379.882 282.567 380.591 282.057 381.131C281.547 381.672 280.859 382.008 280.121 382.077L270.351 382.97C269.946 383.007 269.538 382.962 269.15 382.838C268.763 382.714 268.404 382.513 268.094 382.248C267.785 381.983 267.532 381.658 267.349 381.292C267.167 380.927 267.059 380.529 267.032 380.121L262.548 312.544C262.545 312.415 262.516 312.287 262.464 312.168C262.411 312.05 262.335 311.943 262.24 311.854C262.146 311.766 262.035 311.697 261.914 311.651C261.793 311.606 261.664 311.586 261.535 311.591H261.53C261.401 311.586 261.272 311.607 261.15 311.653C261.029 311.699 260.918 311.769 260.823 311.858C260.729 311.948 260.654 312.055 260.601 312.174C260.549 312.294 260.521 312.422 260.519 312.552L256.507 380.585C256.467 381.313 256.168 382.003 255.665 382.529C255.162 383.055 254.488 383.383 253.765 383.453L245.231 384.311C244.83 384.352 244.425 384.313 244.039 384.195C243.654 384.077 243.296 383.883 242.986 383.624H242.985Z" fill="#2F2E41"/>
<path d="M261.623 165.864C270.817 165.864 278.27 158.374 278.27 149.135C278.27 139.896 270.817 132.407 261.623 132.407C252.428 132.407 244.975 139.896 244.975 149.135C244.975 158.374 252.428 165.864 261.623 165.864Z" fill="#FFB8B8"/>
<path d="M229.563 275.479C229.266 275.141 229.048 274.741 228.925 274.307C228.802 273.874 228.776 273.418 228.849 272.974C231.923 254.202 230.19 226.608 228.196 206.766C227.675 201.503 228.544 196.194 230.714 191.375C232.885 186.556 236.281 182.397 240.56 179.317L249.254 171.829C249.832 171.337 250.569 171.074 251.327 171.092L272.926 171.712C273.705 171.733 274.446 172.054 274.996 172.609L278.333 180.036L278.368 180.061C282.345 182.999 285.536 186.881 287.655 191.361C289.774 195.84 290.755 200.778 290.511 205.732L287.332 271.755C287.291 272.523 286.966 273.248 286.421 273.787C285.876 274.326 285.15 274.642 284.385 274.671L231.958 276.522C231.924 276.522 231.89 276.523 231.856 276.523C231.422 276.524 230.993 276.431 230.597 276.251C230.201 276.071 229.849 275.808 229.563 275.479V275.479Z" fill="#6C63FF"/>
<path d="M166.678 247.928C166.652 246.859 166.859 245.797 167.286 244.817C167.712 243.837 168.348 242.963 169.147 242.256C169.946 241.549 170.89 241.027 171.911 240.727C172.933 240.426 174.008 240.354 175.06 240.516L202.081 221.515L209.666 235.483L181.145 249.388C180.757 251.146 179.741 252.7 178.289 253.756C176.837 254.811 175.05 255.295 173.267 255.115C171.483 254.935 169.828 254.104 168.613 252.78C167.399 251.455 166.71 249.729 166.678 247.928L166.678 247.928Z" fill="#FFB8B8"/>
<path d="M189.416 251.231C189.02 251.171 188.64 251.033 188.297 250.824C187.954 250.615 187.656 250.34 187.42 250.015L176.992 235.739C176.514 235.084 176.315 234.264 176.438 233.461C176.56 232.658 176.995 231.936 177.646 231.455L239.392 185.914C241.928 184.044 245.1 183.262 248.209 183.741C249.749 183.979 251.227 184.519 252.559 185.33C253.892 186.141 255.052 187.208 255.973 188.47C256.895 189.732 257.56 191.164 257.931 192.684C258.302 194.204 258.372 195.783 258.136 197.33C257.899 198.878 257.362 200.363 256.555 201.701C255.747 203.04 254.685 204.206 253.43 205.132L191.684 250.672C191.163 251.059 190.533 251.267 189.886 251.267C189.729 251.267 189.572 251.255 189.416 251.231V251.231Z" fill="#6C63FF"/>
<path d="M262.474 164.027C264.681 161.307 264.44 157.164 262.668 154.139C260.896 151.114 257.888 149.031 254.793 147.404C251.698 145.776 248.41 144.497 245.497 142.559C242.584 140.622 242.711 132.419 241.936 128.997L243.785 129.616C243.074 128.702 242.846 126.002 242.135 125.088C244.226 125.295 245.833 127.289 247.923 127.497L246.717 124.244C253.884 123.8 258.341 128.804 265.508 128.36C269.059 128.14 272.916 128.001 275.835 130.045C278.372 131.821 279.657 134.895 280.499 137.884C282.308 144.302 282.59 151.491 279.465 157.377C276.34 163.262 269.137 167.228 262.844 165.103L262.474 164.027Z" fill="#2F2E41"/>
<path d="M171.072 397.762H429.322C429.501 397.762 429.674 397.69 429.801 397.562C429.928 397.434 429.999 397.261 429.999 397.081C429.999 396.9 429.928 396.727 429.801 396.599C429.674 396.471 429.501 396.399 429.322 396.399H171.072C170.893 396.399 170.72 396.471 170.593 396.599C170.466 396.727 170.395 396.9 170.395 397.081C170.395 397.261 170.466 397.434 170.593 397.562C170.72 397.69 170.893 397.762 171.072 397.762Z" fill="#3F3D56"/>
</g>
<defs>
<clipPath id="clip0_273:4768">
<rect width="430" height="398" fill="white"/>
</clipPath>
</defs>
</svg>
