<svg width="1366" height="46" viewBox="0 0 1366 46" fill="none" xmlns="http://www.w3.org/2000/svg">
<path fill-rule="evenodd" clip-rule="evenodd" d="M0 5.06446L56.9167 9.93774C113.833 14.811 227.667 24.5576 341.5 23.5829C455.333 22.6083 569.167 10.9124 683 5.06446C796.833 -0.783475 910.667 -0.783475 1024.5 1.16584C1138.33 3.11515 1252.17 7.01377 1309.08 8.96308L1366 10.9124V46H1309.08C1252.17 46 1138.33 46 1024.5 46C910.667 46 796.833 46 683 46C569.167 46 455.333 46 341.5 46C227.667 46 113.833 46 56.9167 46H0L0 5.06446Z" fill="#EBE3A2"/>
</svg>
